<svg width="33" height="34" viewBox="0 0 33 34" fill="none" xmlns="http://www.w3.org/2000/svg">
<path d="M16.3672 0.734497C25.3953 0.734497 32.7345 8.07371 32.7345 17.1017C32.7345 26.1298 25.3908 33.469 16.3672 33.469C7.3437 33.469 0 26.1253 0 17.1017C0 8.0782 7.3437 0.734497 16.3672 0.734497ZM21.0519 27.1628C20.4995 27.4189 19.9246 27.621 19.3317 27.7602C18.5142 28.4474 17.2431 29.1706 15.2533 29.759C14.4808 29.988 13.9732 30.4551 14.0316 30.8953C14.0945 31.4118 14.9389 31.9553 16.6817 32.0182C18.5456 31.9778 20.3827 31.5825 22.0985 30.8504C21.7167 30.2845 21.4382 29.6107 21.281 28.8741C21.1552 28.3127 21.0789 27.7378 21.0564 27.1628H21.0519ZM22.9653 25.8558C22.6599 26.1657 22.3231 26.4397 21.9637 26.6822C21.9413 27.4728 22.067 28.2363 22.1748 28.7304C22.3231 29.4131 22.5925 30.0195 22.9564 30.509C23.3381 30.3204 23.7065 30.1138 24.0703 29.8937C23.3876 28.9415 22.9609 27.603 22.9564 26.3094C22.9564 26.1567 22.9564 26.004 22.9698 25.8558H22.9653ZM28.7819 12.5383C28.198 12.5338 27.6321 12.718 27.1605 13.0593C28.2789 13.6163 28.9256 14.052 28.984 14.0924C28.993 14.0969 29.002 14.1059 29.0065 14.1104C29.011 14.1104 29.0155 14.1193 29.02 14.1193C29.0379 14.1328 29.0514 14.1463 29.0694 14.1643C29.0694 14.1643 29.0963 14.2002 29.1053 14.2137C29.1053 14.2182 29.1143 14.2227 29.1143 14.2271C29.1233 14.2406 29.1323 14.2541 29.1367 14.2721C29.1367 14.2765 29.1412 14.281 29.1457 14.2855C29.1547 14.3035 29.1637 14.326 29.1682 14.3439C29.1682 14.3484 29.1727 14.3574 29.1727 14.3619C29.1727 14.3754 29.1772 14.3888 29.1817 14.4068C29.1817 14.4113 29.1817 14.4158 29.1817 14.4203C29.4826 16.94 29.002 18.7861 28.984 18.8669C28.9706 18.9208 28.9436 18.9702 28.9122 19.0196C27.2997 21.3238 25.8085 22.8464 24.5643 23.8526C24.187 24.6026 23.9849 25.4875 23.9894 26.3903C23.9939 27.4907 24.3712 28.663 24.9506 29.4535C25.7232 28.919 26.4418 28.3127 27.1021 27.6479C27.0661 27.5985 27.0257 27.5446 26.9853 27.4862C26.1948 26.3813 26.06 25.2988 26.608 24.432C26.7472 24.2209 26.8955 24.0232 27.0572 23.8301L27.1874 23.6684C27.659 23.0665 28.0992 22.4332 28.5034 21.7819C29.0289 20.9375 29.6488 20.5153 30.336 20.5153C30.5875 20.5153 30.839 20.5737 31.0681 20.6815C31.3735 19.4823 31.5263 18.2516 31.5263 17.0164C31.5263 16.2169 31.4589 15.4129 31.3286 14.6224C31.0546 13.6343 30.2417 12.5383 28.7684 12.5383H28.7819ZM8.96066 25.191C8.37227 25.6312 7.73896 26.0399 7.11463 26.3274C6.3331 26.6822 5.87496 27.2257 5.96928 27.6839C6.0681 28.142 6.78675 28.6046 8.17913 28.6046C9.06397 28.6046 10.5237 28.416 12.6482 27.585C11.0133 27.1089 9.77363 26.3005 8.95617 25.191H8.96066ZM21.7975 22.1907C21.5999 24.6655 19.2553 26.1927 15.5857 26.1927C15.4195 26.1927 15.2533 26.1927 15.0871 26.1837C11.9565 26.0579 9.90389 25.0473 9.05049 23.2237C9.76016 25.6582 12.0419 26.9787 15.8642 27.1494C16.0708 27.1583 16.2774 27.1628 16.484 27.1628C19.426 27.1628 22.5521 26.1657 23.428 23.4932C22.7677 23.4798 22.1614 22.9677 21.802 22.1907H21.7975ZM30.2551 21.3418C29.9183 21.3418 29.5769 21.6202 29.2401 22.1637C28.8178 22.8509 28.3597 23.5112 27.8656 24.149L27.7264 24.3242C27.5872 24.4859 27.4614 24.6565 27.3446 24.8362C26.9269 25.501 27.3042 26.296 27.6905 26.8394C29.0469 25.2809 30.0755 23.4573 30.7133 21.4855C30.5471 21.3912 30.3944 21.3418 30.2507 21.3418H30.2551ZM13.6409 16.2079C12.4686 16.3786 11.4714 16.8727 10.7258 17.6677C9.81855 18.6289 9.36041 19.9629 9.45922 21.3283C9.62541 23.7448 11.4984 25.0428 15.0377 25.1865C15.1815 25.191 15.3297 25.1955 15.4734 25.1955C12.9267 24.6296 11.5613 23.2462 11.4131 21.0723C11.3008 19.5092 11.8263 17.9821 12.8638 16.8817C13.1019 16.6301 13.3624 16.4056 13.6409 16.2079ZM23.1001 19.096C23.1001 19.096 23.0731 19.096 23.0597 19.096C22.6554 19.1454 22.2826 19.9404 22.3949 20.9375C22.5072 21.9392 23.0417 22.6264 23.4549 22.577C23.4774 22.577 23.4998 22.568 23.5223 22.5635H23.5403C23.5403 22.5635 23.5807 22.541 23.5987 22.5275H23.6031C23.6031 22.5275 23.6436 22.4961 23.666 22.4826C23.6705 22.4781 23.6795 22.4736 23.684 22.4647C23.6975 22.4512 23.7154 22.4377 23.7334 22.4197L23.7469 22.4063C23.7469 22.4063 23.7828 22.3658 23.8008 22.3389C23.8098 22.3299 23.8143 22.3209 23.8232 22.3075C23.8367 22.2895 23.8457 22.2715 23.8592 22.2581C23.8637 22.2491 23.8726 22.2356 23.8816 22.2266C23.8951 22.1997 23.9086 22.1727 23.922 22.1458C23.931 22.1323 23.9355 22.1143 23.9445 22.0964C23.9535 22.0784 23.958 22.0649 23.967 22.0469C23.9759 22.029 23.9804 22.011 23.9894 21.993C24.0029 21.9661 24.0119 21.9347 24.0209 21.9032C24.0298 21.8808 24.0343 21.8583 24.0388 21.8358C24.0433 21.8179 24.0478 21.8044 24.0523 21.7864C24.0568 21.764 24.0658 21.7415 24.0703 21.7146C24.0793 21.6831 24.0837 21.6562 24.0882 21.6247C24.1421 21.3328 24.1511 21.0319 24.1152 20.7354C24.0613 20.2773 23.922 19.891 23.7424 19.6035C23.702 19.5362 23.6615 19.4778 23.6121 19.4194L23.5987 19.4014C23.5762 19.3745 23.5537 19.352 23.5313 19.3296C23.5223 19.3206 23.5178 19.3161 23.5043 19.3026C23.4909 19.2936 23.4819 19.2801 23.4684 19.2712C23.4504 19.2532 23.4325 19.2397 23.4145 19.2262C23.4055 19.2173 23.3965 19.2128 23.3876 19.2083C23.3696 19.1948 23.3516 19.1858 23.3337 19.1723C23.3292 19.1723 23.3202 19.1634 23.3157 19.1634C23.2977 19.1544 23.2753 19.1454 23.2573 19.1364L23.2393 19.1274C23.2393 19.1274 23.1989 19.114 23.1764 19.1095H23.163C23.163 19.1095 23.1181 19.1005 23.0956 19.1005L23.1001 19.096ZM28.2609 15.8172C27.2413 17.1871 26.096 18.4582 24.8473 19.6215C24.9686 19.9359 25.0494 20.2593 25.0899 20.5962C25.1527 21.1531 25.1033 21.6786 24.9641 22.1233C25.8849 21.2385 26.9224 20.0527 28.0228 18.4851C28.0857 18.2067 28.2878 17.2006 28.2654 15.8172H28.2609ZM3.93011 19.9674C3.57079 19.9674 3.27884 20.2593 3.27884 20.6186C3.27884 20.978 3.57079 21.2699 3.93011 21.2699C4.28944 21.2699 4.58139 20.978 4.58139 20.6186C4.58139 20.2593 4.28944 19.9674 3.93011 19.9674ZM15.8777 13.9127C13.012 13.9127 10.9729 15.3815 9.83202 17.3533C9.91736 17.25 10.0027 17.1467 10.097 17.0478C11.2199 15.8531 12.7965 15.2243 14.6515 15.2243H14.7458C17.9213 15.2602 20.5983 17.214 21.4831 19.873C21.6358 18.9927 22.1119 18.3234 22.7587 18.1438C22.3904 17.4161 21.9098 16.7469 21.3304 16.163C19.8976 14.7167 17.9617 13.9217 15.8732 13.9127H15.8777ZM21.537 12.0802C21.2316 12.2868 20.4995 12.8258 19.4844 13.7645C19.6551 13.8409 19.8213 13.9172 19.983 14.0026C20.4231 13.5983 20.8813 13.2165 21.3574 12.8617C21.4741 12.7764 21.6179 12.7494 21.7571 12.7809C23.9535 13.3109 24.726 13.7735 25.4761 14.2182C25.6019 14.2945 25.7277 14.3709 25.8579 14.4427C26.0466 14.5505 26.1409 14.7661 26.0825 14.9772C25.9702 15.3905 24.8743 16.4819 23.6076 17.6048C23.7424 17.8518 23.8637 18.1078 23.9715 18.3684C24.1421 18.4806 24.2993 18.6154 24.4296 18.7726C26.3071 17.0209 27.5602 15.35 28.0722 14.6134C27.165 14.0744 24.7665 12.7854 21.528 12.0802H21.537ZM21.7077 13.7106C21.4697 13.8948 21.1597 14.1508 20.7914 14.4832C21.2406 14.7931 21.6583 15.1434 22.0401 15.5297C22.4264 15.9205 22.7722 16.3472 23.0776 16.8053C23.8726 16.0777 24.5688 15.3994 24.9192 14.9907C24.2365 14.5775 23.5672 14.1822 21.7077 13.7106ZM4.61732 12.3317C4.49156 12.3317 4.38825 12.435 4.38825 12.5608C4.38376 13.4995 3.63816 14.2766 2.66799 14.3304C2.64553 14.3304 2.61858 14.3349 2.59163 14.3349C2.46587 14.3349 2.36256 14.4382 2.36256 14.564C2.36256 14.6898 2.46587 14.7931 2.59163 14.7931C2.62307 14.7931 2.659 14.7976 2.69044 14.7976C3.63367 14.8515 4.37478 15.624 4.38376 16.5672C4.38376 16.693 4.48707 16.7963 4.61283 16.7963C4.7386 16.7963 4.8419 16.693 4.8419 16.5672C4.85538 15.624 5.59648 14.8515 6.5442 14.7976C6.57564 14.7976 6.60708 14.7931 6.64302 14.7931C6.76878 14.7931 6.87209 14.6898 6.87209 14.564C6.87209 14.4382 6.76878 14.3349 6.64302 14.3349C6.61607 14.3349 6.58912 14.3349 6.5442 14.326C5.60098 14.2721 4.85538 13.4995 4.84639 12.5563C4.84639 12.4305 4.74309 12.3272 4.61732 12.3272V12.3317ZM9.2616 11.4154C9.12236 11.4154 8.98761 11.4693 8.8888 11.5681C8.78998 11.667 8.73608 11.8017 8.73608 11.9409C8.73608 12.2329 8.97414 12.4665 9.2616 12.4665C9.55355 12.4665 9.78711 12.2284 9.78711 11.9409C9.78711 11.649 9.54906 11.4154 9.2616 11.4154ZM28.3687 8.94058C27.951 8.94058 27.4928 9.27744 27.2278 9.7805C27.0482 10.1174 26.8191 10.8046 26.7068 12.1476C27.3132 11.7433 28.0318 11.5277 28.7684 11.5322C29.4332 11.5277 30.089 11.7119 30.6504 12.0577L30.6279 11.9993C30.2327 10.8405 29.8195 9.64126 28.8178 9.06634C28.6831 8.98549 28.5304 8.94058 28.3687 8.94058ZM23.4684 8.94058C23.2483 8.94058 22.4578 9.09329 21.5864 11.0426C21.5819 11.0516 21.5775 11.0651 21.5685 11.0741C22.597 11.2986 23.6076 11.5996 24.5958 11.9679C24.5868 11.3166 24.506 10.6653 24.3622 10.032C24.205 9.35829 23.8637 8.94058 23.4684 8.94058ZM13.4792 7.03616C12.8099 7.03616 12.262 7.57963 12.262 8.25337C12.262 8.92261 12.8054 9.46609 13.4747 9.46609C14.1439 9.46609 14.6874 8.92261 14.6874 8.25337C14.6874 7.58413 14.1439 7.04065 13.4747 7.03616H13.4792ZM8.01294 7.35955C7.61319 7.35955 7.2898 7.68294 7.2898 8.08269C7.2898 8.48244 7.61319 8.80583 8.01294 8.80583C8.41269 8.80583 8.73608 8.48244 8.73608 8.08269C8.73608 7.68294 8.41269 7.35955 8.01294 7.35955ZM21.3169 5.77852C20.9891 5.77852 20.7196 6.04352 20.7196 6.3759C20.7196 6.61844 20.8633 6.83403 21.0879 6.92836C21.3125 7.02268 21.5685 6.96878 21.7391 6.7981C21.9098 6.62742 21.9592 6.3714 21.8694 6.14683C21.7796 5.92225 21.5595 5.77852 21.3169 5.77852ZM16.5244 3.09706C16.4436 3.09706 16.3717 3.16443 16.3717 3.24528C16.3628 3.89206 15.8597 4.42207 15.2174 4.44902C15.1994 4.44902 15.186 4.44902 15.168 4.44902C15.0827 4.44902 15.0153 4.52088 15.0153 4.60622C15.0153 4.69156 15.0827 4.76343 15.168 4.76343C15.1905 4.76343 15.2129 4.76343 15.2354 4.76343C15.8687 4.79936 16.3672 5.32487 16.3717 5.96716C16.3717 6.0525 16.4436 6.11539 16.5244 6.11539C16.6053 6.11539 16.6772 6.04801 16.6772 5.96716C16.6861 5.32487 17.1802 4.79936 17.818 4.76343C17.8405 4.76343 17.8629 4.76343 17.8854 4.76343C17.9707 4.76343 18.0381 4.69156 18.0381 4.60622C18.0381 4.52088 17.9707 4.44902 17.8854 4.44902C17.8674 4.44902 17.8539 4.44902 17.818 4.44453C17.1847 4.40859 16.6861 3.88308 16.6772 3.24079C16.6772 3.15545 16.6053 3.09257 16.5244 3.09257V3.09706Z" fill="white" style="fill:white;fill-opacity:1;"/>
</svg>
