<svg width="248" height="34" viewBox="0 0 248 34" fill="none" xmlns="http://www.w3.org/2000/svg">
<path d="M16.3672 0.468994C25.3953 0.468994 32.7345 7.8082 32.7345 16.8362C32.7345 25.8643 25.3908 33.2035 16.3672 33.2035C7.3437 33.2035 0 25.8598 0 16.8362C0 7.81269 7.3437 0.468994 16.3672 0.468994ZM21.0519 26.8973C20.4995 27.1534 19.9246 27.3555 19.3317 27.4947C18.5142 28.1819 17.2431 28.9051 15.2533 29.4935C14.4808 29.7225 13.9732 30.1896 14.0316 30.6298C14.0945 31.1463 14.9389 31.6898 16.6817 31.7527C18.5456 31.7123 20.3827 31.317 22.0985 30.5849C21.7167 30.019 21.4382 29.3452 21.281 28.6086C21.1552 28.0472 21.0789 27.4722 21.0564 26.8973H21.0519ZM22.9653 25.5903C22.6599 25.9002 22.3231 26.1742 21.9637 26.4167C21.9413 27.2073 22.067 27.9708 22.1748 28.4649C22.3231 29.1476 22.5925 29.754 22.9564 30.2435C23.3381 30.0549 23.7065 29.8483 24.0703 29.6282C23.3876 28.676 22.9609 27.3375 22.9564 26.0439C22.9564 25.8912 22.9564 25.7385 22.9698 25.5903H22.9653ZM28.7819 12.2728C28.198 12.2683 27.6321 12.4525 27.1605 12.7938C28.2789 13.3508 28.9256 13.7865 28.984 13.8269C28.993 13.8314 29.002 13.8404 29.0065 13.8449C29.011 13.8449 29.0155 13.8538 29.02 13.8538C29.0379 13.8673 29.0514 13.8808 29.0694 13.8988C29.0694 13.8988 29.0963 13.9347 29.1053 13.9482C29.1053 13.9527 29.1143 13.9571 29.1143 13.9616C29.1233 13.9751 29.1323 13.9886 29.1367 14.0066C29.1367 14.011 29.1412 14.0155 29.1457 14.02C29.1547 14.038 29.1637 14.0605 29.1682 14.0784C29.1682 14.0829 29.1727 14.0919 29.1727 14.0964C29.1727 14.1099 29.1772 14.1233 29.1817 14.1413C29.1817 14.1458 29.1817 14.1503 29.1817 14.1548C29.4826 16.6745 29.002 18.5206 28.984 18.6014C28.9706 18.6553 28.9436 18.7047 28.9122 18.7541C27.2997 21.0583 25.8085 22.5809 24.5643 23.5871C24.187 24.3371 23.9849 25.222 23.9894 26.1248C23.9939 27.2252 24.3712 28.3975 24.9506 29.188C25.7232 28.6535 26.4418 28.0472 27.1021 27.3824C27.0661 27.333 27.0257 27.2791 26.9853 27.2207C26.1948 26.1158 26.06 25.0333 26.608 24.1665C26.7472 23.9554 26.8955 23.7577 27.0572 23.5646L27.1874 23.4029C27.659 22.801 28.0992 22.1677 28.5034 21.5164C29.0289 20.672 29.6488 20.2498 30.336 20.2498C30.5875 20.2498 30.839 20.3082 31.0681 20.416C31.3735 19.2168 31.5263 17.9861 31.5263 16.7509C31.5263 15.9514 31.4589 15.1474 31.3286 14.3569C31.0546 13.3688 30.2417 12.2728 28.7684 12.2728H28.7819ZM8.96066 24.9255C8.37227 25.3657 7.73896 25.7744 7.11463 26.0619C6.3331 26.4167 5.87496 26.9602 5.96928 27.4184C6.0681 27.8765 6.78675 28.3391 8.17913 28.3391C9.06397 28.3391 10.5237 28.1505 12.6482 27.3195C11.0133 26.8434 9.77363 26.035 8.95617 24.9255H8.96066ZM21.7975 21.9252C21.5999 24.4 19.2553 25.9272 15.5857 25.9272C15.4195 25.9272 15.2533 25.9272 15.0871 25.9182C11.9565 25.7924 9.90389 24.7818 9.05049 22.9582C9.76016 25.3927 12.0419 26.7132 15.8642 26.8839C16.0708 26.8928 16.2774 26.8973 16.484 26.8973C19.426 26.8973 22.5521 25.9002 23.428 23.2277C22.7677 23.2143 22.1614 22.7022 21.802 21.9252H21.7975ZM30.2551 21.0763C29.9183 21.0763 29.5769 21.3547 29.2401 21.8982C28.8178 22.5854 28.3597 23.2457 27.8656 23.8835L27.7264 24.0587C27.5872 24.2204 27.4614 24.391 27.3446 24.5707C26.9269 25.2355 27.3042 26.0305 27.6905 26.5739C29.0469 25.0154 30.0755 23.1918 30.7133 21.22C30.5471 21.1257 30.3944 21.0763 30.2507 21.0763H30.2551ZM13.6409 15.9424C12.4686 16.1131 11.4714 16.6072 10.7258 17.4022C9.81855 18.3634 9.36041 19.6974 9.45922 21.0628C9.62541 23.4793 11.4984 24.7773 15.0377 24.921C15.1815 24.9255 15.3297 24.93 15.4734 24.93C12.9267 24.3641 11.5613 22.9807 11.4131 20.8068C11.3008 19.2437 11.8263 17.7166 12.8638 16.6162C13.1019 16.3646 13.3624 16.14 13.6409 15.9424ZM23.1001 18.8305C23.1001 18.8305 23.0731 18.8305 23.0597 18.8305C22.6554 18.8799 22.2826 19.6749 22.3949 20.672C22.5072 21.6736 23.0417 22.3609 23.4549 22.3114C23.4774 22.3114 23.4998 22.3025 23.5223 22.298H23.5403C23.5403 22.298 23.5807 22.2755 23.5987 22.262H23.6031C23.6031 22.262 23.6436 22.2306 23.666 22.2171C23.6705 22.2126 23.6795 22.2081 23.684 22.1992C23.6975 22.1857 23.7154 22.1722 23.7334 22.1542L23.7469 22.1408C23.7469 22.1408 23.7828 22.1003 23.8008 22.0734C23.8098 22.0644 23.8143 22.0554 23.8232 22.042C23.8367 22.024 23.8457 22.006 23.8592 21.9925C23.8637 21.9836 23.8726 21.9701 23.8816 21.9611C23.8951 21.9342 23.9086 21.9072 23.922 21.8803C23.931 21.8668 23.9355 21.8488 23.9445 21.8309C23.9535 21.8129 23.958 21.7994 23.967 21.7814C23.9759 21.7635 23.9804 21.7455 23.9894 21.7275C24.0029 21.7006 24.0119 21.6692 24.0209 21.6377C24.0298 21.6153 24.0343 21.5928 24.0388 21.5703C24.0433 21.5524 24.0478 21.5389 24.0523 21.5209C24.0568 21.4985 24.0658 21.476 24.0703 21.4491C24.0793 21.4176 24.0837 21.3907 24.0882 21.3592C24.1421 21.0673 24.1511 20.7664 24.1152 20.4699C24.0613 20.0118 23.922 19.6255 23.7424 19.338C23.702 19.2707 23.6615 19.2123 23.6121 19.1539L23.5987 19.1359C23.5762 19.109 23.5537 19.0865 23.5313 19.0641C23.5223 19.0551 23.5178 19.0506 23.5043 19.0371C23.4909 19.0281 23.4819 19.0146 23.4684 19.0057C23.4504 18.9877 23.4325 18.9742 23.4145 18.9607C23.4055 18.9518 23.3965 18.9473 23.3876 18.9428C23.3696 18.9293 23.3516 18.9203 23.3337 18.9068C23.3292 18.9068 23.3202 18.8979 23.3157 18.8979C23.2977 18.8889 23.2753 18.8799 23.2573 18.8709L23.2393 18.8619C23.2393 18.8619 23.1989 18.8485 23.1764 18.844H23.163C23.163 18.844 23.1181 18.835 23.0956 18.835L23.1001 18.8305ZM28.2609 15.5517C27.2413 16.9216 26.096 18.1927 24.8473 19.356C24.9686 19.6704 25.0494 19.9938 25.0899 20.3307C25.1527 20.8876 25.1033 21.4131 24.9641 21.8578C25.8849 20.973 26.9224 19.7872 28.0228 18.2196C28.0857 17.9412 28.2878 16.9351 28.2654 15.5517H28.2609ZM3.93011 19.7019C3.57079 19.7019 3.27884 19.9938 3.27884 20.3531C3.27884 20.7125 3.57079 21.0044 3.93011 21.0044C4.28944 21.0044 4.58139 20.7125 4.58139 20.3531C4.58139 19.9938 4.28944 19.7019 3.93011 19.7019ZM15.8777 13.6472C13.012 13.6472 10.9729 15.116 9.83202 17.0878C9.91736 16.9845 10.0027 16.8812 10.097 16.7823C11.2199 15.5876 12.7965 14.9588 14.6515 14.9588H14.7458C17.9213 14.9947 20.5983 16.9485 21.4831 19.6075C21.6358 18.7272 22.1119 18.0579 22.7587 17.8783C22.3904 17.1506 21.9098 16.4814 21.3304 15.8975C19.8976 14.4512 17.9617 13.6562 15.8732 13.6472H15.8777ZM21.537 11.8147C21.2316 12.0213 20.4995 12.5603 19.4844 13.499C19.6551 13.5754 19.8213 13.6517 19.983 13.7371C20.4231 13.3328 20.8813 12.951 21.3574 12.5962C21.4741 12.5109 21.6179 12.4839 21.7571 12.5154C23.9535 13.0454 24.726 13.508 25.4761 13.9527C25.6019 14.029 25.7277 14.1054 25.8579 14.1772C26.0466 14.285 26.1409 14.5006 26.0825 14.7117C25.9702 15.125 24.8743 16.2164 23.6076 17.3393C23.7424 17.5863 23.8637 17.8423 23.9715 18.1029C24.1421 18.2151 24.2993 18.3499 24.4296 18.5071C26.3071 16.7554 27.5602 15.0845 28.0722 14.3479C27.165 13.8089 24.7665 12.5198 21.528 11.8147H21.537ZM21.7077 13.4451C21.4697 13.6293 21.1597 13.8853 20.7914 14.2177C21.2406 14.5276 21.6583 14.8779 22.0401 15.2642C22.4264 15.655 22.7722 16.0817 23.0776 16.5398C23.8726 15.8122 24.5688 15.1339 24.9192 14.7252C24.2365 14.312 23.5672 13.9167 21.7077 13.4451ZM4.61732 12.0662C4.49156 12.0662 4.38825 12.1695 4.38825 12.2953C4.38376 13.234 3.63816 14.011 2.66799 14.0649C2.64553 14.0649 2.61858 14.0694 2.59163 14.0694C2.46587 14.0694 2.36256 14.1727 2.36256 14.2985C2.36256 14.4243 2.46587 14.5276 2.59163 14.5276C2.62307 14.5276 2.659 14.5321 2.69044 14.5321C3.63367 14.586 4.37478 15.3585 4.38376 16.3017C4.38376 16.4275 4.48707 16.5308 4.61283 16.5308C4.7386 16.5308 4.8419 16.4275 4.8419 16.3017C4.85538 15.3585 5.59648 14.586 6.5442 14.5321C6.57564 14.5321 6.60708 14.5276 6.64302 14.5276C6.76878 14.5276 6.87209 14.4243 6.87209 14.2985C6.87209 14.1727 6.76878 14.0694 6.64302 14.0694C6.61607 14.0694 6.58912 14.0694 6.5442 14.0605C5.60098 14.0066 4.85538 13.234 4.84639 12.2908C4.84639 12.165 4.74309 12.0617 4.61732 12.0617V12.0662ZM9.2616 11.1499C9.12236 11.1499 8.98761 11.2038 8.8888 11.3026C8.78998 11.4015 8.73608 11.5362 8.73608 11.6754C8.73608 11.9674 8.97414 12.2009 9.2616 12.2009C9.55355 12.2009 9.78711 11.9629 9.78711 11.6754C9.78711 11.3835 9.54906 11.1499 9.2616 11.1499ZM28.3687 8.67507C27.951 8.67507 27.4928 9.01194 27.2278 9.515C27.0482 9.85186 26.8191 10.5391 26.7068 11.882C27.3132 11.4778 28.0318 11.2622 28.7684 11.2667C29.4332 11.2622 30.089 11.4464 30.6504 11.7922L30.6279 11.7338C30.2327 10.575 29.8195 9.37576 28.8178 8.80084C28.6831 8.71999 28.5304 8.67507 28.3687 8.67507ZM23.4684 8.67507C23.2483 8.67507 22.4578 8.82779 21.5864 10.7771C21.5819 10.7861 21.5775 10.7996 21.5685 10.8086C22.597 11.0331 23.6076 11.3341 24.5958 11.7024C24.5868 11.0511 24.506 10.3998 24.3622 9.76652C24.205 9.09279 23.8637 8.67507 23.4684 8.67507ZM13.4792 6.77065C12.8099 6.77065 12.262 7.31413 12.262 7.98786C12.262 8.65711 12.8054 9.20059 13.4747 9.20059C14.1439 9.20059 14.6874 8.65711 14.6874 7.98786C14.6874 7.31862 14.1439 6.77514 13.4747 6.77065H13.4792ZM8.01294 7.09404C7.61319 7.09404 7.2898 7.41744 7.2898 7.81719C7.2898 8.21693 7.61319 8.54033 8.01294 8.54033C8.41269 8.54033 8.73608 8.21693 8.73608 7.81719C8.73608 7.41744 8.41269 7.09404 8.01294 7.09404ZM21.3169 5.51302C20.9891 5.51302 20.7196 5.77802 20.7196 6.11039C20.7196 6.35294 20.8633 6.56853 21.0879 6.66285C21.3125 6.75718 21.5685 6.70328 21.7391 6.5326C21.9098 6.36192 21.9592 6.1059 21.8694 5.88132C21.7796 5.65675 21.5595 5.51302 21.3169 5.51302ZM16.5244 2.83155C16.4436 2.83155 16.3717 2.89893 16.3717 2.97978C16.3628 3.62656 15.8597 4.15656 15.2174 4.18351C15.1994 4.18351 15.186 4.18351 15.168 4.18351C15.0827 4.18351 15.0153 4.25538 15.0153 4.34072C15.0153 4.42606 15.0827 4.49792 15.168 4.49792C15.1905 4.49792 15.2129 4.49792 15.2354 4.49792C15.8687 4.53386 16.3672 5.05937 16.3717 5.70166C16.3717 5.787 16.4436 5.84988 16.5244 5.84988C16.6053 5.84988 16.6772 5.78251 16.6772 5.70166C16.6861 5.05937 17.1802 4.53386 17.818 4.49792C17.8405 4.49792 17.8629 4.49792 17.8854 4.49792C17.9707 4.49792 18.0381 4.42606 18.0381 4.34072C18.0381 4.25538 17.9707 4.18351 17.8854 4.18351C17.8674 4.18351 17.8539 4.18351 17.818 4.17902C17.1847 4.14309 16.6861 3.61758 16.6772 2.97528C16.6772 2.88994 16.6053 2.82706 16.5244 2.82706V2.83155Z" fill="url(#paint0_linear_22003_579048)" style=""/>
<path d="M39.3946 21.1834L39.8633 21.4758C41.5897 22.4689 44.866 23.7869 46.8244 23.7869C48.6389 23.7869 50.6855 23.2022 50.6855 21.68C50.6855 20.1578 48.1099 19.3968 46.8522 19.0487C46.0633 18.8445 45.2744 18.6403 44.4251 18.4037C41.1766 17.5266 37.5244 16.2689 37.5244 12.496C37.5244 7.49334 41.9702 5.01056 47.0007 5.01056C49.9569 5.01056 52.9362 5.82732 55.3958 7.32163L55.7485 7.55367L53.0894 12.0273L52.6485 11.7628C50.9221 10.6537 48.7596 9.83226 46.6805 9.83226C44.866 9.83226 43.2603 10.4773 43.2603 11.9948C43.2603 12.6074 43.7847 13.0483 45.0145 13.4845C46.2118 13.9532 47.85 14.2734 49.4882 14.7421C52.7645 15.6471 56.3889 17.1414 56.3889 21.1788C56.3889 22.3204 56.0687 23.4295 55.484 24.4273C53.6694 27.4391 50.1007 28.4322 46.6527 28.4322C43.5805 28.4322 39.7798 27.583 37.2924 25.7731L37 25.5689L39.3992 21.1834H39.3946Z" fill="#252B37" style="fill:#252B37;fill:color(display-p3 0.1451 0.1686 0.2157);fill-opacity:1;"/>
<path d="M64.9278 10.417H58.1988V5.59064H77.0354V10.417H70.3064V28.4322H64.9232V10.417H64.9278Z" fill="#252B37" style="fill:#252B37;fill:color(display-p3 0.1451 0.1686 0.2157);fill-opacity:1;"/>
<path d="M90.0526 5.24249C97.6866 5.24249 101.896 10.4494 101.896 16.8536C101.896 23.2577 97.6819 28.4368 90.0526 28.4368C82.4233 28.4368 78.177 23.2299 78.177 16.8536C78.177 10.4772 82.3908 5.24249 90.0526 5.24249ZM96.8373 16.8257C96.8373 12.9925 94.3824 10.0967 90.0526 10.0967C85.7228 10.0967 83.24 12.9925 83.24 16.8257C83.24 20.6589 85.695 23.5547 90.0526 23.5547C94.4102 23.5547 96.8373 20.6311 96.8373 16.8257Z" fill="#252B37" style="fill:#252B37;fill:color(display-p3 0.1451 0.1686 0.2157);fill-opacity:1;"/>
<path d="M104.42 28.4369V5.59528H114.277C119.219 5.59528 121.971 8.95979 121.971 13.0529C121.971 16.1807 120.333 19.2529 116.825 20.246L123.466 28.4369H116.737L110.713 20.5709H109.775V28.4369H104.425H104.42ZM109.775 15.9162H114.193C116.008 15.9162 117.029 14.6864 117.029 13.0483C117.029 11.4101 115.975 10.2406 114.193 10.2406H109.775V15.9162Z" fill="#252B37" style="fill:#252B37;fill:color(display-p3 0.1451 0.1686 0.2157);fill-opacity:1;"/>
<path d="M160.61 28.4368L169.706 5.50702H175.001L184.069 28.4368H178.393L176.463 23.3784H168.244L166.286 28.4368H160.61ZM170.058 18.7238H174.681L172.342 12.7001L170.058 18.7238Z" fill="#252B37" style="fill:#252B37;fill:color(display-p3 0.1451 0.1686 0.2157);fill-opacity:1;"/>
<path d="M186.371 5.56293H191.754V28.4324H186.371V5.56293Z" fill="#252B37" style="fill:#252B37;fill:color(display-p3 0.1451 0.1686 0.2157);fill-opacity:1;"/>
<path d="M194.872 29.2814V5.44672H200.256V23.1418C200.929 23.0536 201.629 23.0257 202.33 23.0257C203.82 23.0257 205.282 23.2578 206.688 23.5501C207.509 23.7543 208.354 23.9585 209.175 24.1349C210.024 24.2509 210.813 24.3994 211.663 24.3994C213.389 24.3994 214.823 23.875 216.252 22.9376L216.693 22.673L219.297 26.678L218.944 26.91C216.749 28.2837 214.354 29.0726 211.663 29.0726C209.908 29.0726 208.27 28.7199 206.748 28.3718C205.959 28.1955 205.226 28.0191 204.437 27.9031C203.736 27.7546 202.975 27.6711 202.242 27.6711C201.045 27.6711 199.959 27.9031 198.877 28.228C197.768 28.5203 196.682 28.9009 195.485 29.1329L194.872 29.2768V29.2814ZM211.031 5.49312C216.359 5.49312 219.292 9.13144 219.292 13.5633C219.292 17.9952 216.359 21.6335 211.031 21.6335C205.704 21.6335 202.771 17.9674 202.771 13.5633C202.771 9.15929 205.736 5.49312 211.031 5.49312ZM214.475 13.5633C214.475 11.6792 213.296 10.0874 211.189 10.0874C209.082 10.0874 208.061 11.7766 208.061 13.5633C208.061 15.35 209.18 17.0392 211.189 17.0392C213.199 17.0392 214.475 15.4428 214.475 13.5633Z" fill="#252B37" style="fill:#252B37;fill:color(display-p3 0.1451 0.1686 0.2157);fill-opacity:1;"/>
<path d="M221.719 28.4369V5.59528H231.576C236.518 5.59528 239.27 8.95979 239.27 13.0529C239.27 16.1807 237.632 19.2529 234.123 20.246L240.764 28.4369H234.035L228.012 20.5709H227.074V28.4369H221.724H221.719ZM227.07 15.9162H231.488C233.302 15.9162 234.323 14.6864 234.323 13.0483C234.323 11.4101 233.27 10.2406 231.488 10.2406H227.07V15.9162Z" fill="#252B37" style="fill:#252B37;fill:color(display-p3 0.1451 0.1686 0.2157);fill-opacity:1;"/>
<path d="M166.081 6.45843C166.012 5.73912 165.757 4.90379 165.418 4.24481C164.17 1.67386 161.789 0.59721 158.847 0.880294C154.953 1.26083 151.575 3.41412 149.923 6.98747C149.774 7.24271 149.695 7.49331 149.579 7.71142C149.472 7.68822 149.366 7.62789 149.366 7.62789C146.799 6.774 144.669 6.15214 141.903 6.4213C140.093 6.59765 137.235 7.43762 134.956 10.4077C133.485 12.1758 132.227 14.3616 132.227 14.3616L127.401 5.61846H121.637L129.564 19.6102V28.4276H134.914V19.6102C134.914 19.6102 136.172 15.8327 137.685 14.0646C137.922 13.7815 138.182 13.5123 138.455 13.2478C139.472 12.3243 140.966 11.5168 142.414 11.3776C144.089 11.2152 146.526 11.8045 148.247 12.5006C146.939 23.1836 147.704 32.8362 147.704 32.8362C147.704 32.8362 152.591 32.7388 152.753 32.6228C152.619 28.7385 152.582 28.706 152.712 18.3479C152.73 17.1367 152.749 15.8976 152.907 14.6725C152.907 14.64 152.92 14.4637 152.971 14.2548V14.1852C153.106 14.2084 153.25 14.2595 153.426 14.3152C153.816 14.4173 154.169 14.4869 154.234 14.4776C155.682 14.821 157.111 14.9927 158.615 14.8442C163.227 14.394 166.508 10.8717 166.077 6.46307L166.081 6.45843ZM158.141 9.9204C156.981 10.0318 155.473 9.79974 154.299 9.396C154.327 9.32639 154.354 9.25214 154.415 9.17789C154.498 8.96442 154.619 8.81127 154.679 8.70454C155.686 7.01996 157.278 6.00364 159.329 5.80409C160.355 5.70663 161.005 6.0222 161.102 7.01068C161.26 8.61636 159.849 9.75334 158.141 9.9204Z" fill="#252B37" style="fill:#252B37;fill:color(display-p3 0.1451 0.1686 0.2157);fill-opacity:1;"/>
<path d="M243.275 10.3784V7.14966H244.911C245.043 7.14966 245.185 7.18757 245.34 7.26341C245.495 7.33632 245.626 7.45007 245.734 7.60466C245.845 7.75632 245.9 7.94882 245.9 8.18216C245.9 8.41841 245.843 8.61966 245.729 8.78591C245.616 8.94924 245.477 9.0732 245.314 9.15778C245.153 9.24236 245.002 9.28466 244.859 9.28466H243.678V8.75966H244.64C244.736 8.75966 244.84 8.71153 244.951 8.61528C245.064 8.51903 245.121 8.37466 245.121 8.18216C245.121 7.98382 245.064 7.84966 244.951 7.77966C244.84 7.70966 244.742 7.67466 244.658 7.67466H243.984V10.3784H243.275ZM245.226 8.85591L246.031 10.3784H245.253L244.465 8.85591H245.226ZM244.5 12.3034C244.016 12.3034 243.562 12.213 243.139 12.0322C242.716 11.8513 242.345 11.6005 242.024 11.2797C241.703 10.9588 241.452 10.5869 241.271 10.164C241.09 9.74111 241 9.28757 241 8.80341C241 8.31924 241.09 7.8657 241.271 7.44278C241.452 7.01986 241.703 6.64799 242.024 6.32716C242.345 6.00632 242.716 5.75549 243.139 5.57466C243.562 5.39382 244.016 5.30341 244.5 5.30341C244.984 5.30341 245.438 5.39382 245.861 5.57466C246.284 5.75549 246.655 6.00632 246.976 6.32716C247.297 6.64799 247.548 7.01986 247.729 7.44278C247.91 7.8657 248 8.31924 248 8.80341C248 9.28757 247.91 9.74111 247.729 10.164C247.548 10.5869 247.297 10.9588 246.976 11.2797C246.655 11.6005 246.284 11.8513 245.861 12.0322C245.438 12.213 244.984 12.3034 244.5 12.3034ZM244.5 11.4634C244.99 11.4634 245.436 11.3438 245.839 11.1047C246.241 10.8655 246.562 10.5447 246.801 10.1422C247.04 9.73966 247.16 9.29341 247.16 8.80341C247.16 8.31341 247.04 7.86716 246.801 7.46466C246.562 7.06216 246.241 6.74132 245.839 6.50216C245.436 6.26299 244.99 6.14341 244.5 6.14341C244.01 6.14341 243.564 6.26299 243.161 6.50216C242.759 6.74132 242.438 7.06216 242.199 7.46466C241.96 7.86716 241.84 8.31341 241.84 8.80341C241.84 9.29341 241.96 9.73966 242.199 10.1422C242.438 10.5447 242.759 10.8655 243.161 11.1047C243.564 11.3438 244.01 11.4634 244.5 11.4634Z" fill="#252B37" style="fill:#252B37;fill:color(display-p3 0.1451 0.1686 0.2157);fill-opacity:1;"/>
<defs>
<linearGradient id="paint0_linear_22003_579048" x1="16.3672" y1="0.468994" x2="16.3672" y2="33.2035" gradientUnits="userSpaceOnUse">
<stop stop-color="#F04438" style="stop-color:#F04438;stop-color:color(display-p3 0.9412 0.2670 0.2188);stop-opacity:1;"/>
<stop offset="1" stop-color="#444CE7" style="stop-color:#444CE7;stop-color:color(display-p3 0.2677 0.2996 0.9048);stop-opacity:1;"/>
</linearGradient>
</defs>
</svg>
