<svg width="33" height="33" viewBox="0 0 33 33" fill="none" xmlns="http://www.w3.org/2000/svg">
<path d="M16.3672 0C25.3953 0 32.7345 7.33921 32.7345 16.3672C32.7345 25.3953 25.3908 32.7345 16.3672 32.7345C7.3437 32.7345 0 25.3908 0 16.3672C0 7.3437 7.3437 0 16.3672 0ZM21.0519 26.4283C20.4995 26.6844 19.9246 26.8865 19.3317 27.0257C18.5142 27.7129 17.2431 28.4361 15.2533 29.0245C14.4808 29.2535 13.9732 29.7207 14.0316 30.1608C14.0945 30.6774 14.9389 31.2208 16.6817 31.2837C18.5456 31.2433 20.3827 30.848 22.0985 30.1159C21.7167 29.55 21.4382 28.8762 21.281 28.1396C21.1552 27.5782 21.0789 27.0033 21.0564 26.4283H21.0519ZM22.9653 25.1213C22.6599 25.4312 22.3231 25.7052 21.9637 25.9477C21.9413 26.7383 22.067 27.5018 22.1748 27.9959C22.3231 28.6786 22.5925 29.285 22.9564 29.7745C23.3381 29.5859 23.7065 29.3793 24.0703 29.1592C23.3876 28.207 22.9609 26.8685 22.9564 25.5749C22.9564 25.4222 22.9564 25.2695 22.9698 25.1213H22.9653ZM28.7819 11.8038C28.198 11.7993 27.6321 11.9835 27.1605 12.3248C28.2789 12.8818 28.9256 13.3175 28.984 13.3579C28.993 13.3624 29.002 13.3714 29.0065 13.3759C29.011 13.3759 29.0155 13.3848 29.02 13.3848C29.0379 13.3983 29.0514 13.4118 29.0694 13.4298C29.0694 13.4298 29.0963 13.4657 29.1053 13.4792C29.1053 13.4837 29.1143 13.4882 29.1143 13.4926C29.1233 13.5061 29.1323 13.5196 29.1367 13.5376C29.1367 13.5421 29.1412 13.5465 29.1457 13.551C29.1547 13.569 29.1637 13.5915 29.1682 13.6094C29.1682 13.6139 29.1727 13.6229 29.1727 13.6274C29.1727 13.6409 29.1772 13.6543 29.1817 13.6723C29.1817 13.6768 29.1817 13.6813 29.1817 13.6858C29.4826 16.2055 29.002 18.0516 28.984 18.1324C28.9706 18.1863 28.9436 18.2357 28.9122 18.2851C27.2997 20.5893 25.8085 22.1119 24.5643 23.1181C24.187 23.8681 23.9849 24.753 23.9894 25.6558C23.9939 26.7562 24.3712 27.9285 24.9506 28.719C25.7232 28.1845 26.4418 27.5782 27.1021 26.9134C27.0661 26.864 27.0257 26.8101 26.9853 26.7517C26.1948 25.6468 26.06 24.5643 26.608 23.6975C26.7472 23.4864 26.8955 23.2887 27.0572 23.0956L27.1874 22.9339C27.659 22.332 28.0992 21.6987 28.5034 21.0474C29.0289 20.203 29.6488 19.7808 30.336 19.7808C30.5875 19.7808 30.839 19.8392 31.0681 19.947C31.3735 18.7478 31.5263 17.5171 31.5263 16.2819C31.5263 15.4824 31.4589 14.6784 31.3286 13.8879C31.0546 12.8998 30.2417 11.8038 28.7684 11.8038H28.7819ZM8.96066 24.4565C8.37227 24.8967 7.73896 25.3054 7.11463 25.5929C6.3331 25.9477 5.87496 26.4912 5.96928 26.9494C6.0681 27.4075 6.78675 27.8701 8.17913 27.8701C9.06397 27.8701 10.5237 27.6815 12.6482 26.8505C11.0133 26.3744 9.77363 25.566 8.95617 24.4565H8.96066ZM21.7975 21.4562C21.5999 23.931 19.2553 25.4582 15.5857 25.4582C15.4195 25.4582 15.2533 25.4582 15.0871 25.4492C11.9565 25.3234 9.90389 24.3128 9.05049 22.4892C9.76016 24.9237 12.0419 26.2442 15.8642 26.4149C16.0708 26.4238 16.2774 26.4283 16.484 26.4283C19.426 26.4283 22.5521 25.4312 23.428 22.7587C22.7677 22.7453 22.1614 22.2332 21.802 21.4562H21.7975ZM30.2551 20.6073C29.9183 20.6073 29.5769 20.8858 29.2401 21.4292C28.8178 22.1164 28.3597 22.7767 27.8656 23.4145L27.7264 23.5897C27.5872 23.7514 27.4614 23.922 27.3446 24.1017C26.9269 24.7665 27.3042 25.5615 27.6905 26.1049C29.0469 24.5464 30.0755 22.7228 30.7133 20.751C30.5471 20.6567 30.3944 20.6073 30.2507 20.6073H30.2551ZM13.6409 15.4734C12.4686 15.6441 11.4714 16.1382 10.7258 16.9332C9.81855 17.8944 9.36041 19.2284 9.45922 20.5938C9.62541 23.0103 11.4984 24.3083 15.0377 24.4521C15.1815 24.4565 15.3297 24.461 15.4734 24.461C12.9267 23.8951 11.5613 22.5117 11.4131 20.3378C11.3008 18.7747 11.8263 17.2476 12.8638 16.1472C13.1019 15.8956 13.3624 15.6711 13.6409 15.4734ZM23.1001 18.3615C23.1001 18.3615 23.0731 18.3615 23.0597 18.3615C22.6554 18.4109 22.2826 19.2059 22.3949 20.203C22.5072 21.2047 23.0417 21.8919 23.4549 21.8425C23.4774 21.8425 23.4998 21.8335 23.5223 21.829H23.5403C23.5403 21.829 23.5807 21.8065 23.5987 21.793H23.6031C23.6031 21.793 23.6436 21.7616 23.666 21.7481C23.6705 21.7436 23.6795 21.7391 23.684 21.7302C23.6975 21.7167 23.7154 21.7032 23.7334 21.6852L23.7469 21.6718C23.7469 21.6718 23.7828 21.6313 23.8008 21.6044C23.8098 21.5954 23.8143 21.5864 23.8232 21.573C23.8367 21.555 23.8457 21.537 23.8592 21.5236C23.8637 21.5146 23.8726 21.5011 23.8816 21.4921C23.8951 21.4652 23.9086 21.4382 23.922 21.4113C23.931 21.3978 23.9355 21.3798 23.9445 21.3619C23.9535 21.3439 23.958 21.3304 23.967 21.3125C23.9759 21.2945 23.9804 21.2765 23.9894 21.2586C24.0029 21.2316 24.0119 21.2002 24.0209 21.1687C24.0298 21.1463 24.0343 21.1238 24.0388 21.1013C24.0433 21.0834 24.0478 21.0699 24.0523 21.0519C24.0568 21.0295 24.0658 21.007 24.0703 20.9801C24.0793 20.9486 24.0837 20.9217 24.0882 20.8902C24.1421 20.5983 24.1511 20.2974 24.1152 20.0009C24.0613 19.5428 23.922 19.1565 23.7424 18.869C23.702 18.8017 23.6615 18.7433 23.6121 18.6849L23.5987 18.6669C23.5762 18.64 23.5537 18.6175 23.5313 18.5951C23.5223 18.5861 23.5178 18.5816 23.5043 18.5681C23.4909 18.5591 23.4819 18.5457 23.4684 18.5367C23.4504 18.5187 23.4325 18.5052 23.4145 18.4918C23.4055 18.4828 23.3965 18.4783 23.3876 18.4738C23.3696 18.4603 23.3516 18.4513 23.3337 18.4379C23.3292 18.4379 23.3202 18.4289 23.3157 18.4289C23.2977 18.4199 23.2753 18.4109 23.2573 18.4019L23.2393 18.3929C23.2393 18.3929 23.1989 18.3795 23.1764 18.375H23.163C23.163 18.375 23.1181 18.366 23.0956 18.366L23.1001 18.3615ZM28.2609 15.0827C27.2413 16.4526 26.096 17.7237 24.8473 18.887C24.9686 19.2014 25.0494 19.5248 25.0899 19.8617C25.1527 20.4186 25.1033 20.9441 24.9641 21.3888C25.8849 20.504 26.9224 19.3182 28.0228 17.7506C28.0857 17.4722 28.2878 16.4661 28.2654 15.0827H28.2609ZM3.93011 19.2329C3.57079 19.2329 3.27884 19.5248 3.27884 19.8841C3.27884 20.2435 3.57079 20.5354 3.93011 20.5354C4.28944 20.5354 4.58139 20.2435 4.58139 19.8841C4.58139 19.5248 4.28944 19.2329 3.93011 19.2329ZM15.8777 13.1782C13.012 13.1782 10.9729 14.647 9.83202 16.6188C9.91736 16.5155 10.0027 16.4122 10.097 16.3133C11.2199 15.1186 12.7965 14.4898 14.6515 14.4898H14.7458C17.9213 14.5257 20.5983 16.4795 21.4831 19.1385C21.6358 18.2582 22.1119 17.5889 22.7587 17.4093C22.3904 16.6817 21.9098 16.0124 21.3304 15.4285C19.8976 13.9822 17.9617 13.1872 15.8732 13.1782H15.8777ZM21.537 11.3457C21.2316 11.5523 20.4995 12.0913 19.4844 13.03C19.6551 13.1064 19.8213 13.1827 19.983 13.2681C20.4231 12.8638 20.8813 12.482 21.3574 12.1272C21.4741 12.0419 21.6179 12.0149 21.7571 12.0464C23.9535 12.5764 24.726 13.039 25.4761 13.4837C25.6019 13.56 25.7277 13.6364 25.8579 13.7082C26.0466 13.816 26.1409 14.0316 26.0825 14.2427C25.9702 14.656 24.8743 15.7474 23.6076 16.8703C23.7424 17.1173 23.8637 17.3734 23.9715 17.6339C24.1421 17.7462 24.2993 17.8809 24.4296 18.0381C26.3071 16.2864 27.5602 14.6155 28.0722 13.8789C27.165 13.3399 24.7665 12.0509 21.528 11.3457H21.537ZM21.7077 12.9761C21.4697 13.1603 21.1597 13.4163 20.7914 13.7487C21.2406 14.0586 21.6583 14.4089 22.0401 14.7952C22.4264 15.186 22.7722 15.6127 23.0776 16.0708C23.8726 15.3432 24.5688 14.6649 24.9192 14.2562C24.2365 13.843 23.5672 13.4477 21.7077 12.9761ZM4.61732 11.5972C4.49156 11.5972 4.38825 11.7005 4.38825 11.8263C4.38376 12.765 3.63816 13.5421 2.66799 13.596C2.64553 13.596 2.61858 13.6004 2.59163 13.6004C2.46587 13.6004 2.36256 13.7037 2.36256 13.8295C2.36256 13.9553 2.46587 14.0586 2.59163 14.0586C2.62307 14.0586 2.659 14.0631 2.69044 14.0631C3.63367 14.117 4.37478 14.8895 4.38376 15.8327C4.38376 15.9585 4.48707 16.0618 4.61283 16.0618C4.7386 16.0618 4.8419 15.9585 4.8419 15.8327C4.85538 14.8895 5.59648 14.117 6.5442 14.0631C6.57564 14.0631 6.60708 14.0586 6.64302 14.0586C6.76878 14.0586 6.87209 13.9553 6.87209 13.8295C6.87209 13.7037 6.76878 13.6004 6.64302 13.6004C6.61607 13.6004 6.58912 13.6004 6.5442 13.5915C5.60098 13.5376 4.85538 12.765 4.84639 11.8218C4.84639 11.696 4.74309 11.5927 4.61732 11.5927V11.5972ZM9.2616 10.6809C9.12236 10.6809 8.98761 10.7348 8.8888 10.8336C8.78998 10.9325 8.73608 11.0672 8.73608 11.2064C8.73608 11.4984 8.97414 11.732 9.2616 11.732C9.55355 11.732 9.78711 11.4939 9.78711 11.2064C9.78711 10.9145 9.54906 10.6809 9.2616 10.6809ZM28.3687 8.20608C27.951 8.20608 27.4928 8.54295 27.2278 9.046C27.0482 9.38287 26.8191 10.0701 26.7068 11.4131C27.3132 11.0088 28.0318 10.7932 28.7684 10.7977C29.4332 10.7932 30.089 10.9774 30.6504 11.3232L30.6279 11.2648C30.2327 10.106 29.8195 8.90676 28.8178 8.33184C28.6831 8.25099 28.5304 8.20608 28.3687 8.20608ZM23.4684 8.20608C23.2483 8.20608 22.4578 8.35879 21.5864 10.3081C21.5819 10.3171 21.5775 10.3306 21.5685 10.3396C22.597 10.5641 23.6076 10.8651 24.5958 11.2334C24.5868 10.5821 24.506 9.93084 24.3622 9.29753C24.205 8.6238 23.8637 8.20608 23.4684 8.20608ZM13.4792 6.30166C12.8099 6.30166 12.262 6.84514 12.262 7.51887C12.262 8.18811 12.8054 8.73159 13.4747 8.73159C14.1439 8.73159 14.6874 8.18811 14.6874 7.51887C14.6874 6.84963 14.1439 6.30615 13.4747 6.30166H13.4792ZM8.01294 6.62505C7.61319 6.62505 7.2898 6.94844 7.2898 7.34819C7.2898 7.74794 7.61319 8.07133 8.01294 8.07133C8.41269 8.07133 8.73608 7.74794 8.73608 7.34819C8.73608 6.94844 8.41269 6.62505 8.01294 6.62505ZM21.3169 5.04402C20.9891 5.04402 20.7196 5.30902 20.7196 5.6414C20.7196 5.88394 20.8633 6.09954 21.0879 6.19386C21.3125 6.28818 21.5685 6.23428 21.7391 6.06361C21.9098 5.89293 21.9592 5.63691 21.8694 5.41233C21.7796 5.18775 21.5595 5.04402 21.3169 5.04402ZM16.5244 2.36256C16.4436 2.36256 16.3717 2.42993 16.3717 2.51078C16.3628 3.15757 15.8597 3.68757 15.2174 3.71452C15.1994 3.71452 15.186 3.71452 15.168 3.71452C15.0827 3.71452 15.0153 3.78638 15.0153 3.87172C15.0153 3.95706 15.0827 4.02893 15.168 4.02893C15.1905 4.02893 15.2129 4.02893 15.2354 4.02893C15.8687 4.06486 16.3672 4.59037 16.3717 5.23267C16.3717 5.31801 16.4436 5.38089 16.5244 5.38089C16.6053 5.38089 16.6772 5.31351 16.6772 5.23267C16.6861 4.59037 17.1802 4.06486 17.818 4.02893C17.8405 4.02893 17.8629 4.02893 17.8854 4.02893C17.9707 4.02893 18.0381 3.95706 18.0381 3.87172C18.0381 3.78638 17.9707 3.71452 17.8854 3.71452C17.8674 3.71452 17.8539 3.71452 17.818 3.71003C17.1847 3.6741 16.6861 3.14858 16.6772 2.50629C16.6772 2.42095 16.6053 2.35807 16.5244 2.35807V2.36256Z" fill="#252B37" style="fill:#252B37;fill:color(display-p3 0.1451 0.1686 0.2157);fill-opacity:1;"/>
</svg>
