<svg width="33" height="34" viewBox="0 0 33 34" fill="none" xmlns="http://www.w3.org/2000/svg">
<path d="M16.3672 0.468994C25.3953 0.468994 32.7345 7.8082 32.7345 16.8362C32.7345 25.8643 25.3908 33.2035 16.3672 33.2035C7.3437 33.2035 0 25.8598 0 16.8362C0 7.81269 7.3437 0.468994 16.3672 0.468994ZM21.0519 26.8973C20.4995 27.1534 19.9246 27.3555 19.3317 27.4947C18.5142 28.1819 17.2431 28.9051 15.2533 29.4935C14.4808 29.7225 13.9732 30.1896 14.0316 30.6298C14.0945 31.1463 14.9389 31.6898 16.6817 31.7527C18.5456 31.7123 20.3827 31.317 22.0985 30.5849C21.7167 30.019 21.4382 29.3452 21.281 28.6086C21.1552 28.0472 21.0789 27.4722 21.0564 26.8973H21.0519ZM22.9653 25.5903C22.6599 25.9002 22.3231 26.1742 21.9637 26.4167C21.9413 27.2073 22.067 27.9708 22.1748 28.4649C22.3231 29.1476 22.5925 29.754 22.9564 30.2435C23.3381 30.0549 23.7065 29.8483 24.0703 29.6282C23.3876 28.676 22.9609 27.3375 22.9564 26.0439C22.9564 25.8912 22.9564 25.7385 22.9698 25.5903H22.9653ZM28.7819 12.2728C28.198 12.2683 27.6321 12.4525 27.1605 12.7938C28.2789 13.3508 28.9256 13.7865 28.984 13.8269C28.993 13.8314 29.002 13.8404 29.0065 13.8449C29.011 13.8449 29.0155 13.8538 29.02 13.8538C29.0379 13.8673 29.0514 13.8808 29.0694 13.8988C29.0694 13.8988 29.0963 13.9347 29.1053 13.9482C29.1053 13.9527 29.1143 13.9571 29.1143 13.9616C29.1233 13.9751 29.1323 13.9886 29.1367 14.0066C29.1367 14.011 29.1412 14.0155 29.1457 14.02C29.1547 14.038 29.1637 14.0605 29.1682 14.0784C29.1682 14.0829 29.1727 14.0919 29.1727 14.0964C29.1727 14.1099 29.1772 14.1233 29.1817 14.1413C29.1817 14.1458 29.1817 14.1503 29.1817 14.1548C29.4826 16.6745 29.002 18.5206 28.984 18.6014C28.9706 18.6553 28.9436 18.7047 28.9122 18.7541C27.2997 21.0583 25.8085 22.5809 24.5643 23.5871C24.187 24.3371 23.9849 25.222 23.9894 26.1248C23.9939 27.2252 24.3712 28.3975 24.9506 29.188C25.7232 28.6535 26.4418 28.0472 27.1021 27.3824C27.0661 27.333 27.0257 27.2791 26.9853 27.2207C26.1948 26.1158 26.06 25.0333 26.608 24.1665C26.7472 23.9554 26.8955 23.7577 27.0572 23.5646L27.1874 23.4029C27.659 22.801 28.0992 22.1677 28.5034 21.5164C29.0289 20.672 29.6488 20.2498 30.336 20.2498C30.5875 20.2498 30.839 20.3082 31.0681 20.416C31.3735 19.2168 31.5263 17.9861 31.5263 16.7509C31.5263 15.9514 31.4589 15.1474 31.3286 14.3569C31.0546 13.3688 30.2417 12.2728 28.7684 12.2728H28.7819ZM8.96066 24.9255C8.37227 25.3657 7.73896 25.7744 7.11463 26.0619C6.3331 26.4167 5.87496 26.9602 5.96928 27.4184C6.0681 27.8765 6.78675 28.3391 8.17913 28.3391C9.06397 28.3391 10.5237 28.1505 12.6482 27.3195C11.0133 26.8434 9.77363 26.035 8.95617 24.9255H8.96066ZM21.7975 21.9252C21.5999 24.4 19.2553 25.9272 15.5857 25.9272C15.4195 25.9272 15.2533 25.9272 15.0871 25.9182C11.9565 25.7924 9.90389 24.7818 9.05049 22.9582C9.76016 25.3927 12.0419 26.7132 15.8642 26.8839C16.0708 26.8928 16.2774 26.8973 16.484 26.8973C19.426 26.8973 22.5521 25.9002 23.428 23.2277C22.7677 23.2143 22.1614 22.7022 21.802 21.9252H21.7975ZM30.2551 21.0763C29.9183 21.0763 29.5769 21.3547 29.2401 21.8982C28.8178 22.5854 28.3597 23.2457 27.8656 23.8835L27.7264 24.0587C27.5872 24.2204 27.4614 24.391 27.3446 24.5707C26.9269 25.2355 27.3042 26.0305 27.6905 26.5739C29.0469 25.0154 30.0755 23.1918 30.7133 21.22C30.5471 21.1257 30.3944 21.0763 30.2507 21.0763H30.2551ZM13.6409 15.9424C12.4686 16.1131 11.4714 16.6072 10.7258 17.4022C9.81855 18.3634 9.36041 19.6974 9.45922 21.0628C9.62541 23.4793 11.4984 24.7773 15.0377 24.921C15.1815 24.9255 15.3297 24.93 15.4734 24.93C12.9267 24.3641 11.5613 22.9807 11.4131 20.8068C11.3008 19.2437 11.8263 17.7166 12.8638 16.6162C13.1019 16.3646 13.3624 16.14 13.6409 15.9424ZM23.1001 18.8305C23.1001 18.8305 23.0731 18.8305 23.0597 18.8305C22.6554 18.8799 22.2826 19.6749 22.3949 20.672C22.5072 21.6736 23.0417 22.3609 23.4549 22.3114C23.4774 22.3114 23.4998 22.3025 23.5223 22.298H23.5403C23.5403 22.298 23.5807 22.2755 23.5987 22.262H23.6031C23.6031 22.262 23.6436 22.2306 23.666 22.2171C23.6705 22.2126 23.6795 22.2081 23.684 22.1992C23.6975 22.1857 23.7154 22.1722 23.7334 22.1542L23.7469 22.1408C23.7469 22.1408 23.7828 22.1003 23.8008 22.0734C23.8098 22.0644 23.8143 22.0554 23.8232 22.042C23.8367 22.024 23.8457 22.006 23.8592 21.9925C23.8637 21.9836 23.8726 21.9701 23.8816 21.9611C23.8951 21.9342 23.9086 21.9072 23.922 21.8803C23.931 21.8668 23.9355 21.8488 23.9445 21.8309C23.9535 21.8129 23.958 21.7994 23.967 21.7814C23.9759 21.7635 23.9804 21.7455 23.9894 21.7275C24.0029 21.7006 24.0119 21.6692 24.0209 21.6377C24.0298 21.6153 24.0343 21.5928 24.0388 21.5703C24.0433 21.5524 24.0478 21.5389 24.0523 21.5209C24.0568 21.4985 24.0658 21.476 24.0703 21.4491C24.0793 21.4176 24.0837 21.3907 24.0882 21.3592C24.1421 21.0673 24.1511 20.7664 24.1152 20.4699C24.0613 20.0118 23.922 19.6255 23.7424 19.338C23.702 19.2707 23.6615 19.2123 23.6121 19.1539L23.5987 19.1359C23.5762 19.109 23.5537 19.0865 23.5313 19.0641C23.5223 19.0551 23.5178 19.0506 23.5043 19.0371C23.4909 19.0281 23.4819 19.0146 23.4684 19.0057C23.4504 18.9877 23.4325 18.9742 23.4145 18.9607C23.4055 18.9518 23.3965 18.9473 23.3876 18.9428C23.3696 18.9293 23.3516 18.9203 23.3337 18.9068C23.3292 18.9068 23.3202 18.8979 23.3157 18.8979C23.2977 18.8889 23.2753 18.8799 23.2573 18.8709L23.2393 18.8619C23.2393 18.8619 23.1989 18.8485 23.1764 18.844H23.163C23.163 18.844 23.1181 18.835 23.0956 18.835L23.1001 18.8305ZM28.2609 15.5517C27.2413 16.9216 26.096 18.1927 24.8473 19.356C24.9686 19.6704 25.0494 19.9938 25.0899 20.3307C25.1527 20.8876 25.1033 21.4131 24.9641 21.8578C25.8849 20.973 26.9224 19.7872 28.0228 18.2196C28.0857 17.9412 28.2878 16.9351 28.2654 15.5517H28.2609ZM3.93011 19.7019C3.57079 19.7019 3.27884 19.9938 3.27884 20.3531C3.27884 20.7125 3.57079 21.0044 3.93011 21.0044C4.28944 21.0044 4.58139 20.7125 4.58139 20.3531C4.58139 19.9938 4.28944 19.7019 3.93011 19.7019ZM15.8777 13.6472C13.012 13.6472 10.9729 15.116 9.83202 17.0878C9.91736 16.9845 10.0027 16.8812 10.097 16.7823C11.2199 15.5876 12.7965 14.9588 14.6515 14.9588H14.7458C17.9213 14.9947 20.5983 16.9485 21.4831 19.6075C21.6358 18.7272 22.1119 18.0579 22.7587 17.8783C22.3904 17.1506 21.9098 16.4814 21.3304 15.8975C19.8976 14.4512 17.9617 13.6562 15.8732 13.6472H15.8777ZM21.537 11.8147C21.2316 12.0213 20.4995 12.5603 19.4844 13.499C19.6551 13.5754 19.8213 13.6517 19.983 13.7371C20.4231 13.3328 20.8813 12.951 21.3574 12.5962C21.4741 12.5109 21.6179 12.4839 21.7571 12.5154C23.9535 13.0454 24.726 13.508 25.4761 13.9527C25.6019 14.029 25.7277 14.1054 25.8579 14.1772C26.0466 14.285 26.1409 14.5006 26.0825 14.7117C25.9702 15.125 24.8743 16.2164 23.6076 17.3393C23.7424 17.5863 23.8637 17.8423 23.9715 18.1029C24.1421 18.2151 24.2993 18.3499 24.4296 18.5071C26.3071 16.7554 27.5602 15.0845 28.0722 14.3479C27.165 13.8089 24.7665 12.5198 21.528 11.8147H21.537ZM21.7077 13.4451C21.4697 13.6293 21.1597 13.8853 20.7914 14.2177C21.2406 14.5276 21.6583 14.8779 22.0401 15.2642C22.4264 15.655 22.7722 16.0817 23.0776 16.5398C23.8726 15.8122 24.5688 15.1339 24.9192 14.7252C24.2365 14.312 23.5672 13.9167 21.7077 13.4451ZM4.61732 12.0662C4.49156 12.0662 4.38825 12.1695 4.38825 12.2953C4.38376 13.234 3.63816 14.011 2.66799 14.0649C2.64553 14.0649 2.61858 14.0694 2.59163 14.0694C2.46587 14.0694 2.36256 14.1727 2.36256 14.2985C2.36256 14.4243 2.46587 14.5276 2.59163 14.5276C2.62307 14.5276 2.659 14.5321 2.69044 14.5321C3.63367 14.586 4.37478 15.3585 4.38376 16.3017C4.38376 16.4275 4.48707 16.5308 4.61283 16.5308C4.7386 16.5308 4.8419 16.4275 4.8419 16.3017C4.85538 15.3585 5.59648 14.586 6.5442 14.5321C6.57564 14.5321 6.60708 14.5276 6.64302 14.5276C6.76878 14.5276 6.87209 14.4243 6.87209 14.2985C6.87209 14.1727 6.76878 14.0694 6.64302 14.0694C6.61607 14.0694 6.58912 14.0694 6.5442 14.0605C5.60098 14.0066 4.85538 13.234 4.84639 12.2908C4.84639 12.165 4.74309 12.0617 4.61732 12.0617V12.0662ZM9.2616 11.1499C9.12236 11.1499 8.98761 11.2038 8.8888 11.3026C8.78998 11.4015 8.73608 11.5362 8.73608 11.6754C8.73608 11.9674 8.97414 12.2009 9.2616 12.2009C9.55355 12.2009 9.78711 11.9629 9.78711 11.6754C9.78711 11.3835 9.54906 11.1499 9.2616 11.1499ZM28.3687 8.67507C27.951 8.67507 27.4928 9.01194 27.2278 9.515C27.0482 9.85186 26.8191 10.5391 26.7068 11.882C27.3132 11.4778 28.0318 11.2622 28.7684 11.2667C29.4332 11.2622 30.089 11.4464 30.6504 11.7922L30.6279 11.7338C30.2327 10.575 29.8195 9.37576 28.8178 8.80084C28.6831 8.71999 28.5304 8.67507 28.3687 8.67507ZM23.4684 8.67507C23.2483 8.67507 22.4578 8.82779 21.5864 10.7771C21.5819 10.7861 21.5775 10.7996 21.5685 10.8086C22.597 11.0331 23.6076 11.3341 24.5958 11.7024C24.5868 11.0511 24.506 10.3998 24.3622 9.76652C24.205 9.09279 23.8637 8.67507 23.4684 8.67507ZM13.4792 6.77065C12.8099 6.77065 12.262 7.31413 12.262 7.98786C12.262 8.65711 12.8054 9.20059 13.4747 9.20059C14.1439 9.20059 14.6874 8.65711 14.6874 7.98786C14.6874 7.31862 14.1439 6.77514 13.4747 6.77065H13.4792ZM8.01294 7.09404C7.61319 7.09404 7.2898 7.41744 7.2898 7.81719C7.2898 8.21693 7.61319 8.54033 8.01294 8.54033C8.41269 8.54033 8.73608 8.21693 8.73608 7.81719C8.73608 7.41744 8.41269 7.09404 8.01294 7.09404ZM21.3169 5.51302C20.9891 5.51302 20.7196 5.77802 20.7196 6.11039C20.7196 6.35294 20.8633 6.56853 21.0879 6.66285C21.3125 6.75718 21.5685 6.70328 21.7391 6.5326C21.9098 6.36192 21.9592 6.1059 21.8694 5.88132C21.7796 5.65675 21.5595 5.51302 21.3169 5.51302ZM16.5244 2.83155C16.4436 2.83155 16.3717 2.89893 16.3717 2.97978C16.3628 3.62656 15.8597 4.15656 15.2174 4.18351C15.1994 4.18351 15.186 4.18351 15.168 4.18351C15.0827 4.18351 15.0153 4.25538 15.0153 4.34072C15.0153 4.42606 15.0827 4.49792 15.168 4.49792C15.1905 4.49792 15.2129 4.49792 15.2354 4.49792C15.8687 4.53386 16.3672 5.05937 16.3717 5.70166C16.3717 5.787 16.4436 5.84988 16.5244 5.84988C16.6053 5.84988 16.6772 5.78251 16.6772 5.70166C16.6861 5.05937 17.1802 4.53386 17.818 4.49792C17.8405 4.49792 17.8629 4.49792 17.8854 4.49792C17.9707 4.49792 18.0381 4.42606 18.0381 4.34072C18.0381 4.25538 17.9707 4.18351 17.8854 4.18351C17.8674 4.18351 17.8539 4.18351 17.818 4.17902C17.1847 4.14309 16.6861 3.61758 16.6772 2.97528C16.6772 2.88994 16.6053 2.82706 16.5244 2.82706V2.83155Z" fill="url(#paint0_linear_22003_571455)" style=""/>
<defs>
<linearGradient id="paint0_linear_22003_571455" x1="16.3672" y1="0.468994" x2="16.3672" y2="33.2035" gradientUnits="userSpaceOnUse">
<stop stop-color="#FF4405" style="stop-color:#FF4405;stop-color:color(display-p3 1.0000 0.2650 0.0200);stop-opacity:1;"/>
<stop offset="1" stop-color="#155EEF" style="stop-color:#155EEF;stop-color:color(display-p3 0.0837 0.3679 0.9363);stop-opacity:1;"/>
</linearGradient>
</defs>
</svg>
