<svg width="2325" height="307" viewBox="0 0 2325 307" fill="none" xmlns="http://www.w3.org/2000/svg">
<path d="M153.425 0C238.053 0 306.85 68.7969 306.85 153.425C306.85 238.053 238.01 306.85 153.425 306.85C68.839 306.85 0 238.01 0 153.425C0 68.839 68.839 0 153.425 0ZM197.339 247.736C192.16 250.136 186.771 252.031 181.213 253.336C173.55 259.778 161.635 266.557 142.983 272.072C135.741 274.219 130.984 278.598 131.531 282.724C132.12 287.566 140.036 292.661 156.372 293.25C173.845 292.871 191.065 289.166 207.149 282.303C203.57 276.998 200.959 270.683 199.486 263.778C198.307 258.515 197.591 253.126 197.381 247.736H197.339ZM215.275 235.484C212.412 238.389 209.254 240.958 205.886 243.231C205.675 250.641 206.854 257.799 207.864 262.43C209.254 268.83 211.78 274.514 215.19 279.103C218.769 277.335 222.222 275.398 225.632 273.335C219.232 264.409 215.233 251.862 215.19 239.737C215.19 238.305 215.19 236.874 215.317 235.484H215.275ZM269.799 110.648C264.325 110.606 259.02 112.332 254.599 115.532C265.083 120.753 271.146 124.837 271.693 125.215C271.777 125.258 271.862 125.342 271.904 125.384C271.946 125.384 271.988 125.468 272.03 125.468C272.198 125.594 272.325 125.721 272.493 125.889C272.493 125.889 272.746 126.226 272.83 126.352C272.83 126.394 272.914 126.436 272.914 126.479C272.998 126.605 273.083 126.731 273.125 126.9C273.125 126.942 273.167 126.984 273.209 127.026C273.293 127.194 273.377 127.405 273.419 127.573C273.419 127.615 273.462 127.7 273.462 127.742C273.462 127.868 273.504 127.994 273.546 128.163C273.546 128.205 273.546 128.247 273.546 128.289C276.367 151.909 271.862 169.214 271.693 169.971C271.567 170.477 271.314 170.94 271.02 171.403C255.904 193.002 241.926 207.275 230.263 216.706C226.727 223.737 224.832 232.032 224.874 240.495C224.916 250.81 228.453 261.799 233.884 269.209C241.126 264.199 247.863 258.515 254.052 252.284C253.715 251.82 253.336 251.315 252.957 250.768C245.547 240.41 244.284 230.263 249.42 222.137C250.726 220.159 252.115 218.306 253.631 216.496L254.852 214.98C259.273 209.338 263.399 203.401 267.188 197.296C272.114 189.381 277.924 185.423 284.366 185.423C286.724 185.423 289.082 185.971 291.229 186.981C294.092 175.74 295.524 164.203 295.524 152.625C295.524 145.13 294.892 137.594 293.671 130.184C291.103 120.921 283.482 110.648 269.672 110.648H269.799ZM83.9963 229.253C78.4807 233.379 72.5441 237.211 66.6918 239.905C59.3658 243.231 55.0712 248.326 55.9554 252.62C56.8817 256.915 63.6182 261.252 76.6703 261.252C84.9646 261.252 98.6482 259.483 118.563 251.694C103.238 247.231 91.617 239.653 83.9542 229.253H83.9963ZM204.328 201.128C202.475 224.327 180.497 238.642 146.099 238.642C144.541 238.642 142.983 238.642 141.425 238.558C112.079 237.379 92.838 227.906 84.8383 210.812C91.4907 233.632 112.879 246.01 148.709 247.61C150.646 247.694 152.583 247.736 154.519 247.736C182.097 247.736 211.401 238.389 219.611 213.338C213.422 213.212 207.738 208.412 204.37 201.128H204.328ZM283.608 193.17C280.451 193.17 277.251 195.781 274.093 200.875C270.135 207.317 265.841 213.506 261.209 219.485L259.904 221.127C258.599 222.643 257.42 224.243 256.325 225.927C252.41 232.158 255.947 239.61 259.567 244.705C272.283 230.095 281.924 213.001 287.903 194.518C286.345 193.633 284.914 193.17 283.566 193.17H283.608ZM127.868 145.046C116.879 146.646 107.532 151.277 100.543 158.73C92.038 167.74 87.7435 180.245 88.6697 193.044C90.2276 215.696 107.785 227.864 140.962 229.211C142.309 229.253 143.699 229.295 145.046 229.295C121.174 223.99 108.374 211.022 106.985 190.644C105.932 175.992 110.858 161.677 120.584 151.362C122.816 149.004 125.258 146.899 127.868 145.046ZM216.538 172.119C216.538 172.119 216.285 172.119 216.159 172.119C212.37 172.582 208.875 180.034 209.928 189.381C210.98 198.77 215.99 205.212 219.864 204.749C220.074 204.749 220.285 204.665 220.495 204.622H220.664C220.664 204.622 221.043 204.412 221.211 204.286H221.253C221.253 204.286 221.632 203.991 221.843 203.865C221.885 203.823 221.969 203.78 222.011 203.696C222.137 203.57 222.306 203.444 222.474 203.275L222.601 203.149C222.601 203.149 222.937 202.77 223.106 202.517C223.19 202.433 223.232 202.349 223.316 202.223C223.443 202.054 223.527 201.886 223.653 201.759C223.695 201.675 223.78 201.549 223.864 201.465C223.99 201.212 224.116 200.959 224.243 200.707C224.327 200.581 224.369 200.412 224.453 200.244C224.537 200.075 224.579 199.949 224.664 199.781C224.748 199.612 224.79 199.444 224.874 199.275C225.001 199.023 225.085 198.728 225.169 198.433C225.253 198.223 225.295 198.012 225.337 197.802C225.379 197.633 225.422 197.507 225.464 197.339C225.506 197.128 225.59 196.918 225.632 196.665C225.716 196.37 225.758 196.118 225.8 195.823C226.306 193.086 226.39 190.265 226.053 187.486C225.548 183.192 224.243 179.571 222.559 176.876C222.18 176.245 221.801 175.697 221.338 175.15L221.211 174.982C221.001 174.729 220.79 174.519 220.58 174.308C220.495 174.224 220.453 174.182 220.327 174.055C220.201 173.971 220.117 173.845 219.99 173.761C219.822 173.592 219.653 173.466 219.485 173.34C219.401 173.255 219.317 173.213 219.232 173.171C219.064 173.045 218.896 172.961 218.727 172.834C218.685 172.834 218.601 172.75 218.559 172.75C218.39 172.666 218.18 172.582 218.011 172.498L217.843 172.413C217.843 172.413 217.464 172.287 217.253 172.245H217.127C217.127 172.245 216.706 172.161 216.496 172.161L216.538 172.119ZM264.915 141.383C255.357 154.225 244.621 166.14 232.916 177.045C234.053 179.992 234.811 183.023 235.19 186.181C235.779 191.402 235.316 196.328 234.011 200.496C242.642 192.202 252.368 181.087 262.683 166.393C263.273 163.782 265.167 154.351 264.957 141.383H264.915ZM36.8405 180.287C33.4722 180.287 30.7355 183.023 30.7355 186.392C30.7355 189.76 33.4722 192.497 36.8405 192.497C40.2087 192.497 42.9455 189.76 42.9455 186.392C42.9455 183.023 40.2087 180.287 36.8405 180.287ZM148.835 123.531C121.974 123.531 102.859 137.299 92.1643 155.783C92.9643 154.814 93.7642 153.846 94.6484 152.92C105.174 141.72 119.953 135.826 137.341 135.826H138.225C167.993 136.162 193.086 154.477 201.381 179.403C202.812 171.15 207.275 164.877 213.338 163.193C209.885 156.372 205.38 150.099 199.949 144.625C186.518 131.068 168.371 123.616 148.793 123.531H148.835ZM201.886 106.353C199.023 108.29 192.16 113.342 182.645 122.142C184.244 122.858 185.802 123.573 187.318 124.373C191.444 120.584 195.739 117.005 200.202 113.679C201.296 112.879 202.644 112.627 203.949 112.921C224.537 117.889 231.779 122.226 238.81 126.394C239.989 127.11 241.168 127.826 242.389 128.5C244.158 129.51 245.042 131.531 244.494 133.51C243.442 137.383 233.169 147.614 221.295 158.14C222.559 160.456 223.695 162.856 224.706 165.298C226.306 166.35 227.779 167.614 229 169.087C246.6 152.667 258.346 137.004 263.146 130.099C254.641 125.047 232.158 112.963 201.802 106.353H201.886ZM203.486 121.637C201.254 123.363 198.349 125.763 194.897 128.878C199.107 131.784 203.023 135.068 206.601 138.689C210.222 142.352 213.464 146.351 216.327 150.646C223.78 143.825 230.306 137.468 233.59 133.636C227.19 129.763 220.917 126.058 203.486 121.637ZM43.2823 108.711C42.1034 108.711 41.135 109.679 41.135 110.858C41.0929 119.658 34.1037 126.942 25.0094 127.447C24.7989 127.447 24.5463 127.489 24.2937 127.489C23.1148 127.489 22.1464 128.457 22.1464 129.636C22.1464 130.815 23.1148 131.784 24.2937 131.784C24.5884 131.784 24.9252 131.826 25.2199 131.826C34.0616 132.331 41.0087 139.573 41.0929 148.414C41.0929 149.593 42.0613 150.562 43.2402 150.562C44.4191 150.562 45.3875 149.593 45.3875 148.414C45.5138 139.573 52.4608 132.331 61.3446 131.826C61.6394 131.826 61.9341 131.784 62.2709 131.784C63.4498 131.784 64.4182 130.815 64.4182 129.636C64.4182 128.457 63.4498 127.489 62.2709 127.489C62.0183 127.489 61.7657 127.489 61.3446 127.405C52.5029 126.9 45.5138 119.658 45.4296 110.816C45.4296 109.637 44.4612 108.669 43.2823 108.669V108.711ZM86.8172 100.122C85.512 100.122 84.2489 100.627 83.3226 101.553C82.3963 102.48 81.8911 103.743 81.8911 105.048C81.8911 107.785 84.1226 109.974 86.8172 109.974C89.5539 109.974 91.7433 107.743 91.7433 105.048C91.7433 102.311 89.5118 100.122 86.8172 100.122ZM265.925 76.9229C262.009 76.9229 257.715 80.0806 255.231 84.7962C253.547 87.954 251.399 94.3958 250.347 106.985C256.031 103.195 262.767 101.174 269.672 101.217C275.904 101.174 282.051 102.901 287.314 106.143L287.103 105.595C283.398 94.7326 279.524 83.491 270.135 78.1018C268.872 77.3439 267.441 76.9229 265.925 76.9229ZM219.99 76.9229C217.927 76.9229 210.517 78.3544 202.349 96.6273C202.307 96.7115 202.265 96.8378 202.18 96.922C211.822 99.0272 221.295 101.848 230.558 105.301C230.474 99.1956 229.716 93.0906 228.369 87.154C226.895 80.8385 223.695 76.9229 219.99 76.9229ZM126.352 59.0711C120.079 59.0711 114.942 64.1656 114.942 70.4811C114.942 76.7545 120.037 81.849 126.31 81.849C132.584 81.849 137.678 76.7545 137.678 70.4811C137.678 64.2077 132.584 59.1132 126.31 59.0711H126.352ZM75.1125 62.1025C71.3653 62.1025 68.3338 65.1339 68.3338 68.8811C68.3338 72.6284 71.3653 75.6598 75.1125 75.6598C78.8597 75.6598 81.8911 72.6284 81.8911 68.8811C81.8911 65.1339 78.8597 62.1025 75.1125 62.1025ZM199.823 47.2821C196.749 47.2821 194.223 49.7662 194.223 52.8819C194.223 55.1554 195.57 57.1764 197.675 58.0606C199.781 58.9447 202.18 58.4395 203.78 56.8396C205.38 55.2396 205.843 52.8398 205.001 50.7346C204.159 48.6294 202.096 47.2821 199.823 47.2821ZM154.898 22.1464C154.141 22.1464 153.467 22.7779 153.467 23.5358C153.383 29.5987 148.667 34.5669 142.646 34.8195C142.478 34.8195 142.352 34.8195 142.183 34.8195C141.383 34.8195 140.752 35.4932 140.752 36.2931C140.752 37.0931 141.383 37.7667 142.183 37.7667C142.394 37.7667 142.604 37.7667 142.815 37.7667C148.751 38.1036 153.425 43.0297 153.467 49.0504C153.467 49.8504 154.141 50.4399 154.898 50.4399C155.656 50.4399 156.33 49.8083 156.33 49.0504C156.414 43.0297 161.045 38.1036 167.024 37.7667C167.235 37.7667 167.445 37.7667 167.656 37.7667C168.456 37.7667 169.087 37.0931 169.087 36.2931C169.087 35.4932 168.456 34.8195 167.656 34.8195C167.487 34.8195 167.361 34.8195 167.024 34.7774C161.088 34.4406 156.414 29.5145 156.33 23.4937C156.33 22.6937 155.656 22.1043 154.898 22.1043V22.1464Z" fill="white" style="fill:white;fill-opacity:1;"/>
<path d="M369.281 194.175L373.674 196.915C389.857 206.225 420.569 218.579 438.927 218.579C455.936 218.579 475.12 213.098 475.12 198.83C475.12 184.561 450.977 177.427 439.188 174.164C431.793 172.25 424.397 170.336 416.436 168.117C385.985 159.896 351.75 148.107 351.75 112.74C351.75 65.8454 393.424 42.572 440.58 42.572C468.29 42.572 496.218 50.2283 519.274 64.2358L522.58 66.4109L497.654 108.346L493.521 105.867C477.339 95.4699 457.067 87.7701 437.578 87.7701C420.569 87.7701 405.518 93.8168 405.518 108.042C405.518 113.784 410.433 117.917 421.961 122.006C433.185 126.399 448.541 129.401 463.897 133.795C494.609 142.278 528.583 156.285 528.583 194.131C528.583 204.833 525.582 215.23 520.101 224.582C503.092 252.815 469.639 262.124 437.317 262.124C408.519 262.124 372.891 254.163 349.575 237.198L346.834 235.284L369.324 194.175H369.281Z" fill="white" style="fill:white;fill-opacity:1;"/>
<path d="M608.626 93.2514H545.549V48.0098H722.122V93.2514H659.045V262.124H608.583V93.2514H608.626Z" fill="white" style="fill:white;fill-opacity:1;"/>
<path d="M844.143 44.7458C915.703 44.7458 955.159 93.5546 955.159 153.587C955.159 213.619 915.66 262.167 844.143 262.167C772.627 262.167 732.823 213.358 732.823 153.587C732.823 93.8156 772.322 44.7458 844.143 44.7458ZM907.742 153.326C907.742 117.393 884.73 90.2485 844.143 90.2485C803.556 90.2485 780.283 117.393 780.283 153.326C780.283 189.258 803.295 216.403 844.143 216.403C884.991 216.403 907.742 188.997 907.742 153.326Z" fill="white" style="fill:white;fill-opacity:1;"/>
<path d="M978.823 262.167V48.0527H1071.22C1117.55 48.0527 1143.35 79.5914 1143.35 117.96C1143.35 147.28 1127.99 176.078 1095.1 185.387L1157.35 262.167H1094.28L1037.81 188.432H1029.02V262.167H978.866H978.823ZM1029.02 144.8H1070.44C1087.45 144.8 1097.02 133.272 1097.02 117.916C1097.02 102.56 1087.14 91.5978 1070.44 91.5978H1029.02V144.8Z" fill="white" style="fill:white;fill-opacity:1;"/>
<path d="M1505.54 262.167L1590.8 47.2256H1640.44L1725.44 262.167H1672.24L1654.14 214.75H1577.1L1558.74 262.167H1505.54ZM1594.11 171.118H1637.44L1615.51 114.653L1594.11 171.118Z" fill="white" style="fill:white;fill-opacity:1;"/>
<path d="M1747.02 47.7498H1797.48V262.125H1747.02V47.7498Z" fill="white" style="fill:white;fill-opacity:1;"/>
<path d="M1826.71 270.084V46.6604H1877.18V212.532C1883.48 211.705 1890.05 211.444 1896.62 211.444C1910.58 211.444 1924.29 213.619 1937.47 216.36C1945.17 218.274 1953.09 220.188 1960.79 221.841C1968.75 222.929 1976.14 224.321 1984.1 224.321C2000.28 224.321 2013.73 219.405 2027.13 210.618L2031.26 208.138L2055.66 245.68L2052.36 247.855C2031.78 260.731 2009.33 268.127 1984.1 268.127C1967.66 268.127 1952.3 264.821 1938.03 261.558C1930.64 259.905 1923.77 258.252 1916.37 257.164C1909.8 255.772 1902.67 254.989 1895.79 254.989C1884.57 254.989 1874.39 257.164 1864.26 260.209C1853.86 262.95 1843.68 266.517 1832.46 268.692L1826.71 270.041V270.084ZM1978.19 47.0954C2028.13 47.0954 2055.62 81.2006 2055.62 122.745C2055.62 164.289 2028.13 198.394 1978.19 198.394C1928.25 198.394 1900.75 164.028 1900.75 122.745C1900.75 81.4616 1928.55 47.0954 1978.19 47.0954ZM2010.46 122.745C2010.46 105.083 1999.41 90.1619 1979.67 90.1619C1959.92 90.1619 1950.35 105.996 1950.35 122.745C1950.35 139.493 1960.83 155.327 1979.67 155.327C1998.5 155.327 2010.46 140.363 2010.46 122.745Z" fill="white" style="fill:white;fill-opacity:1;"/>
<path d="M2078.37 262.167V48.0527H2170.77C2217.1 48.0527 2242.89 79.5914 2242.89 117.96C2242.89 147.28 2227.54 176.078 2194.65 185.387L2256.9 262.167H2193.82L2137.36 188.432H2128.57V262.167H2078.41H2078.37ZM2128.53 144.8H2169.94C2186.95 144.8 2196.52 133.272 2196.52 117.916C2196.52 102.56 2186.64 91.5978 2169.94 91.5978H2128.53V144.8Z" fill="white" style="fill:white;fill-opacity:1;"/>
<path d="M1556.83 56.1442C1556.18 49.4014 1553.78 41.5711 1550.61 35.3939C1538.91 11.2941 1516.59 1.20172 1489.01 3.85531C1452.51 7.42244 1420.84 27.6072 1405.36 61.1033C1403.97 63.4959 1403.23 65.845 1402.14 67.8896C1401.14 67.6721 1400.14 67.1066 1400.14 67.1066C1376.08 59.1023 1356.11 53.2731 1330.19 55.7961C1313.22 57.4492 1286.42 65.323 1265.07 93.164C1251.28 109.738 1239.49 130.227 1239.49 130.227L1194.24 48.2704H1140.22L1214.52 179.428V262.08H1264.67V179.428C1264.67 179.428 1276.46 144.017 1290.64 127.443C1292.86 124.79 1295.3 122.267 1297.87 119.787C1307.39 111.13 1321.4 103.561 1334.97 102.256C1350.68 100.733 1373.51 106.258 1389.65 112.783C1377.39 212.924 1384.56 303.407 1384.56 303.407C1384.56 303.407 1430.37 302.493 1431.89 301.406C1430.63 264.995 1430.28 264.691 1431.5 167.595C1431.68 156.241 1431.85 144.626 1433.33 133.142C1433.33 132.837 1433.46 131.184 1433.94 129.227V128.574C1435.2 128.792 1436.55 129.27 1438.2 129.792C1441.86 130.749 1445.16 131.402 1445.77 131.315C1459.34 134.534 1472.74 136.143 1486.84 134.751C1530.08 130.532 1560.83 97.5141 1556.79 56.1877L1556.83 56.1442ZM1482.4 88.5963C1471.52 89.6404 1457.39 87.4653 1446.38 83.6806C1446.64 83.0281 1446.9 82.3321 1447.47 81.6361C1448.25 79.635 1449.38 78.1994 1449.95 77.1989C1459.39 61.4079 1474.31 51.881 1493.54 50.0104C1503.15 49.0969 1509.24 52.055 1510.15 61.3208C1511.63 76.3724 1498.41 87.0303 1482.4 88.5963Z" fill="white" style="fill:white;fill-opacity:1;"/>
<path d="M2280.43 99.7749V69.5089H2295.77C2297 69.5089 2298.34 69.8644 2299.79 70.5752C2301.24 71.2587 2302.47 72.325 2303.48 73.7741C2304.52 75.1958 2305.04 77.0002 2305.04 79.1875C2305.04 81.4021 2304.51 83.2886 2303.44 84.847C2302.37 86.378 2301.08 87.54 2299.54 88.3329C2298.04 89.1258 2296.62 89.5222 2295.28 89.5222H2284.21V84.6009H2293.23C2294.13 84.6009 2295.1 84.1498 2296.14 83.2476C2297.21 82.3453 2297.74 80.992 2297.74 79.1875C2297.74 77.3283 2297.21 76.0707 2296.14 75.4145C2295.1 74.7583 2294.19 74.4302 2293.39 74.4302H2287.08V99.7749H2280.43ZM2298.72 85.5031L2306.27 99.7749H2298.97L2291.59 85.5031H2298.72ZM2291.92 117.82C2287.38 117.82 2283.13 116.972 2279.16 115.277C2275.2 113.582 2271.71 111.231 2268.7 108.223C2265.7 105.216 2263.35 101.73 2261.65 97.7654C2259.96 93.801 2259.11 89.5495 2259.11 85.011C2259.11 80.4725 2259.96 76.221 2261.65 72.2567C2263.35 68.2923 2265.7 64.8064 2268.7 61.7989C2271.71 58.7915 2275.2 56.4402 2279.16 54.7451C2283.13 53.0499 2287.38 52.2024 2291.92 52.2024C2296.46 52.2024 2300.71 53.0499 2304.67 54.7451C2308.64 56.4402 2312.12 58.7915 2315.13 61.7989C2318.14 64.8064 2320.49 68.2923 2322.18 72.2567C2323.88 76.221 2324.73 80.4725 2324.73 85.011C2324.73 89.5495 2323.88 93.801 2322.18 97.7654C2320.49 101.73 2318.14 105.216 2315.13 108.223C2312.12 111.231 2308.64 113.582 2304.67 115.277C2300.71 116.972 2296.46 117.82 2291.92 117.82ZM2291.92 109.946C2296.51 109.946 2300.69 108.825 2304.47 106.583C2308.24 104.341 2311.25 101.333 2313.49 97.5603C2315.73 93.7873 2316.85 89.6042 2316.85 85.011C2316.85 80.4178 2315.73 76.2347 2313.49 72.4617C2311.25 68.6887 2308.24 65.6813 2304.47 63.4393C2300.69 61.1974 2296.51 60.0765 2291.92 60.0765C2287.32 60.0765 2283.14 61.1974 2279.37 63.4393C2275.59 65.6813 2272.59 68.6887 2270.34 72.4617C2268.1 76.2347 2266.98 80.4178 2266.98 85.011C2266.98 89.6042 2268.1 93.7873 2270.34 97.5603C2272.59 101.333 2275.59 104.341 2279.37 106.583C2283.14 108.825 2287.32 109.946 2291.92 109.946Z" fill="white" style="fill:white;fill-opacity:1;"/>
</svg>
