<svg width="2325" height="307" viewBox="0 0 2325 307" fill="none" xmlns="http://www.w3.org/2000/svg">
<path d="M153.425 0C238.053 0 306.85 68.7969 306.85 153.425C306.85 238.053 238.01 306.85 153.425 306.85C68.839 306.85 0 238.01 0 153.425C0 68.839 68.839 0 153.425 0ZM197.339 247.736C192.16 250.136 186.771 252.031 181.213 253.336C173.55 259.778 161.635 266.557 142.983 272.072C135.741 274.219 130.984 278.598 131.531 282.724C132.12 287.566 140.036 292.661 156.372 293.25C173.845 292.871 191.065 289.166 207.149 282.303C203.57 276.998 200.96 270.683 199.486 263.778C198.307 258.515 197.591 253.126 197.381 247.736H197.339ZM215.275 235.484C212.412 238.389 209.254 240.958 205.886 243.231C205.675 250.641 206.854 257.799 207.864 262.43C209.254 268.83 211.78 274.514 215.19 279.103C218.769 277.335 222.222 275.398 225.632 273.335C219.232 264.409 215.233 251.862 215.19 239.737C215.19 238.305 215.19 236.874 215.317 235.484H215.275ZM269.799 110.648C264.325 110.606 259.02 112.332 254.599 115.532C265.083 120.753 271.146 124.837 271.693 125.215C271.777 125.258 271.862 125.342 271.904 125.384C271.946 125.384 271.988 125.468 272.03 125.468C272.198 125.594 272.325 125.721 272.493 125.889C272.493 125.889 272.746 126.226 272.83 126.352C272.83 126.394 272.914 126.436 272.914 126.479C272.998 126.605 273.083 126.731 273.125 126.9C273.125 126.942 273.167 126.984 273.209 127.026C273.293 127.194 273.377 127.405 273.419 127.573C273.419 127.615 273.462 127.7 273.462 127.742C273.462 127.868 273.504 127.994 273.546 128.163C273.546 128.205 273.546 128.247 273.546 128.289C276.367 151.909 271.862 169.214 271.693 169.971C271.567 170.477 271.314 170.94 271.02 171.403C255.904 193.002 241.926 207.275 230.263 216.706C226.727 223.737 224.832 232.032 224.874 240.495C224.916 250.81 228.453 261.799 233.884 269.209C241.126 264.199 247.863 258.515 254.052 252.284C253.715 251.82 253.336 251.315 252.957 250.768C245.547 240.41 244.284 230.263 249.42 222.137C250.726 220.159 252.115 218.306 253.631 216.496L254.852 214.98C259.273 209.338 263.399 203.401 267.188 197.296C272.114 189.381 277.924 185.423 284.366 185.423C286.724 185.423 289.082 185.971 291.229 186.981C294.092 175.74 295.524 164.203 295.524 152.625C295.524 145.13 294.892 137.594 293.671 130.184C291.103 120.921 283.482 110.648 269.672 110.648H269.799ZM83.9963 229.253C78.4807 233.379 72.5441 237.211 66.6918 239.905C59.3658 243.231 55.0712 248.326 55.9554 252.62C56.8817 256.915 63.6182 261.252 76.6703 261.252C84.9646 261.252 98.6482 259.483 118.563 251.694C103.238 247.231 91.617 239.653 83.9542 229.253H83.9963ZM204.328 201.128C202.475 224.327 180.497 238.642 146.099 238.642C144.541 238.642 142.983 238.642 141.425 238.558C112.079 237.379 92.838 227.906 84.8383 210.812C91.4907 233.632 112.879 246.01 148.709 247.61C150.646 247.694 152.583 247.736 154.519 247.736C182.097 247.736 211.401 238.389 219.611 213.338C213.422 213.212 207.738 208.412 204.37 201.128H204.328ZM283.608 193.17C280.451 193.17 277.251 195.781 274.093 200.875C270.135 207.317 265.841 213.506 261.209 219.485L259.904 221.127C258.599 222.643 257.42 224.243 256.325 225.927C252.41 232.158 255.947 239.61 259.567 244.705C272.283 230.095 281.924 213.001 287.903 194.518C286.345 193.633 284.914 193.17 283.566 193.17H283.608ZM127.868 145.046C116.879 146.646 107.532 151.277 100.543 158.73C92.038 167.74 87.7435 180.245 88.6697 193.044C90.2276 215.696 107.785 227.864 140.962 229.211C142.309 229.253 143.699 229.295 145.046 229.295C121.174 223.99 108.374 211.022 106.985 190.644C105.932 175.992 110.858 161.677 120.584 151.362C122.816 149.004 125.258 146.899 127.868 145.046ZM216.538 172.119C216.538 172.119 216.285 172.119 216.159 172.119C212.37 172.582 208.875 180.034 209.928 189.381C210.98 198.77 215.99 205.212 219.864 204.749C220.074 204.749 220.285 204.665 220.495 204.622H220.664C220.664 204.622 221.043 204.412 221.211 204.286H221.253C221.253 204.286 221.632 203.991 221.843 203.865C221.885 203.823 221.969 203.78 222.011 203.696C222.137 203.57 222.306 203.444 222.474 203.275L222.601 203.149C222.601 203.149 222.937 202.77 223.106 202.517C223.19 202.433 223.232 202.349 223.316 202.223C223.443 202.054 223.527 201.886 223.653 201.759C223.695 201.675 223.78 201.549 223.864 201.465C223.99 201.212 224.116 200.959 224.243 200.707C224.327 200.581 224.369 200.412 224.453 200.244C224.537 200.075 224.579 199.949 224.664 199.781C224.748 199.612 224.79 199.444 224.874 199.275C225.001 199.023 225.085 198.728 225.169 198.433C225.253 198.223 225.295 198.012 225.337 197.802C225.379 197.633 225.422 197.507 225.464 197.339C225.506 197.128 225.59 196.918 225.632 196.665C225.716 196.37 225.758 196.118 225.8 195.823C226.306 193.086 226.39 190.265 226.053 187.486C225.548 183.192 224.243 179.571 222.559 176.876C222.18 176.245 221.801 175.697 221.338 175.15L221.211 174.982C221.001 174.729 220.79 174.519 220.58 174.308C220.495 174.224 220.453 174.182 220.327 174.055C220.201 173.971 220.117 173.845 219.99 173.761C219.822 173.592 219.653 173.466 219.485 173.34C219.401 173.255 219.317 173.213 219.232 173.171C219.064 173.045 218.896 172.961 218.727 172.834C218.685 172.834 218.601 172.75 218.559 172.75C218.39 172.666 218.18 172.582 218.011 172.498L217.843 172.413C217.843 172.413 217.464 172.287 217.253 172.245H217.127C217.127 172.245 216.706 172.161 216.496 172.161L216.538 172.119ZM264.915 141.383C255.357 154.225 244.621 166.14 232.916 177.045C234.053 179.992 234.811 183.023 235.19 186.181C235.779 191.402 235.316 196.328 234.011 200.496C242.642 192.202 252.368 181.087 262.683 166.393C263.272 163.782 265.167 154.351 264.957 141.383H264.915ZM36.8405 180.287C33.4722 180.287 30.7355 183.023 30.7355 186.392C30.7355 189.76 33.4722 192.497 36.8405 192.497C40.2087 192.497 42.9455 189.76 42.9455 186.392C42.9455 183.023 40.2087 180.287 36.8405 180.287ZM148.835 123.531C121.974 123.531 102.859 137.299 92.1643 155.783C92.9643 154.814 93.7642 153.846 94.6484 152.92C105.174 141.72 119.953 135.826 137.341 135.826H138.225C167.993 136.162 193.086 154.477 201.381 179.403C202.812 171.15 207.275 164.877 213.338 163.193C209.885 156.372 205.38 150.099 199.949 144.625C186.518 131.068 168.371 123.616 148.793 123.531H148.835ZM201.886 106.353C199.023 108.29 192.16 113.342 182.645 122.142C184.244 122.858 185.802 123.573 187.318 124.373C191.444 120.584 195.739 117.005 200.202 113.679C201.296 112.879 202.644 112.627 203.949 112.921C224.537 117.889 231.779 122.226 238.81 126.394C239.989 127.11 241.168 127.826 242.389 128.5C244.158 129.51 245.042 131.531 244.494 133.51C243.442 137.383 233.169 147.615 221.295 158.14C222.559 160.456 223.695 162.856 224.706 165.298C226.306 166.35 227.779 167.614 229 169.087C246.6 152.667 258.346 137.004 263.146 130.099C254.641 125.047 232.158 112.963 201.802 106.353H201.886ZM203.486 121.637C201.254 123.363 198.349 125.763 194.897 128.878C199.107 131.784 203.023 135.068 206.601 138.689C210.222 142.352 213.464 146.351 216.327 150.646C223.78 143.825 230.306 137.468 233.59 133.636C227.19 129.763 220.917 126.058 203.486 121.637ZM43.2823 108.711C42.1034 108.711 41.135 109.679 41.135 110.858C41.0929 119.658 34.1037 126.942 25.0094 127.447C24.7989 127.447 24.5463 127.489 24.2937 127.489C23.1148 127.489 22.1464 128.457 22.1464 129.636C22.1464 130.815 23.1148 131.784 24.2937 131.784C24.5884 131.784 24.9252 131.826 25.2199 131.826C34.0616 132.331 41.0087 139.573 41.0929 148.414C41.0929 149.593 42.0613 150.562 43.2402 150.562C44.4191 150.562 45.3875 149.593 45.3875 148.414C45.5138 139.573 52.4608 132.331 61.3446 131.826C61.6394 131.826 61.9341 131.784 62.2709 131.784C63.4498 131.784 64.4182 130.815 64.4182 129.636C64.4182 128.457 63.4498 127.489 62.2709 127.489C62.0183 127.489 61.7657 127.489 61.3446 127.405C52.5029 126.9 45.5138 119.658 45.4296 110.816C45.4296 109.637 44.4612 108.669 43.2823 108.669V108.711ZM86.8172 100.122C85.512 100.122 84.2489 100.627 83.3226 101.553C82.3963 102.48 81.8911 103.743 81.8911 105.048C81.8911 107.785 84.1226 109.974 86.8172 109.974C89.5539 109.974 91.7433 107.743 91.7433 105.048C91.7433 102.311 89.5118 100.122 86.8172 100.122ZM265.925 76.9229C262.009 76.9229 257.715 80.0807 255.231 84.7962C253.547 87.954 251.399 94.3958 250.347 106.985C256.031 103.195 262.767 101.174 269.672 101.217C275.904 101.174 282.051 102.901 287.314 106.143L287.103 105.595C283.398 94.7326 279.524 83.491 270.135 78.1018C268.872 77.3439 267.441 76.9229 265.925 76.9229ZM219.99 76.9229C217.927 76.9229 210.517 78.3544 202.349 96.6273C202.307 96.7115 202.265 96.8378 202.18 96.922C211.822 99.0272 221.295 101.848 230.558 105.301C230.474 99.1956 229.716 93.0906 228.369 87.154C226.895 80.8385 223.695 76.9229 219.99 76.9229ZM126.352 59.0711C120.079 59.0711 114.942 64.1656 114.942 70.4811C114.942 76.7545 120.037 81.849 126.31 81.849C132.584 81.849 137.678 76.7545 137.678 70.4811C137.678 64.2077 132.584 59.1132 126.31 59.0711H126.352ZM75.1124 62.1025C71.3652 62.1025 68.3338 65.1339 68.3338 68.8811C68.3338 72.6283 71.3652 75.6598 75.1124 75.6598C78.8597 75.6598 81.8911 72.6283 81.8911 68.8811C81.8911 65.1339 78.8597 62.1025 75.1124 62.1025ZM199.823 47.2821C196.749 47.2821 194.223 49.7662 194.223 52.8819C194.223 55.1554 195.57 57.1764 197.675 58.0606C199.781 58.9447 202.18 58.4395 203.78 56.8396C205.38 55.2396 205.843 52.8398 205.001 50.7346C204.159 48.6294 202.096 47.2821 199.823 47.2821ZM154.898 22.1464C154.141 22.1464 153.467 22.7779 153.467 23.5358C153.383 29.5987 148.667 34.5669 142.646 34.8195C142.478 34.8195 142.352 34.8195 142.183 34.8195C141.383 34.8195 140.752 35.4932 140.752 36.2931C140.752 37.0931 141.383 37.7667 142.183 37.7667C142.394 37.7667 142.604 37.7667 142.815 37.7667C148.751 38.1036 153.425 43.0297 153.467 49.0504C153.467 49.8504 154.141 50.4399 154.898 50.4399C155.656 50.4399 156.33 49.8083 156.33 49.0504C156.414 43.0297 161.045 38.1036 167.024 37.7667C167.235 37.7667 167.445 37.7667 167.656 37.7667C168.456 37.7667 169.087 37.0931 169.087 36.2931C169.087 35.4932 168.456 34.8195 167.656 34.8195C167.487 34.8195 167.361 34.8195 167.024 34.7774C161.088 34.4406 156.414 29.5145 156.33 23.4937C156.33 22.6937 155.656 22.1043 154.898 22.1043V22.1464Z" fill="#252B37" style="fill:#252B37;fill:color(display-p3 0.1451 0.1686 0.2157);fill-opacity:1;"/>
<path d="M369.281 194.175L373.674 196.916C389.857 206.225 420.569 218.579 438.927 218.579C455.936 218.579 475.12 213.098 475.12 198.83C475.12 184.561 450.977 177.427 439.188 174.164C431.793 172.25 424.397 170.336 416.436 168.118C385.985 159.896 351.75 148.107 351.75 112.74C351.75 65.8455 393.424 42.5721 440.58 42.5721C468.29 42.5721 496.218 50.2284 519.274 64.2359L522.58 66.411L497.654 108.346L493.521 105.867C477.339 95.47 457.067 87.7702 437.578 87.7702C420.569 87.7702 405.518 93.817 405.518 108.042C405.518 113.784 410.433 117.917 421.961 122.006C433.185 126.4 448.541 129.401 463.897 133.795C494.609 142.278 528.583 156.285 528.583 194.132C528.583 204.833 525.582 215.23 520.101 224.583C503.092 252.815 469.639 262.124 437.317 262.124C408.519 262.124 372.891 254.164 349.575 237.198L346.834 235.284L369.324 194.175H369.281Z" fill="#252B37" style="fill:#252B37;fill:color(display-p3 0.1451 0.1686 0.2157);fill-opacity:1;"/>
<path d="M608.626 93.2514H545.549V48.0098H722.121V93.2514H659.044V262.124H608.582V93.2514H608.626Z" fill="#252B37" style="fill:#252B37;fill:color(display-p3 0.1451 0.1686 0.2157);fill-opacity:1;"/>
<path d="M844.143 44.7463C915.703 44.7463 955.159 93.5551 955.159 153.587C955.159 213.619 915.66 262.167 844.143 262.167C772.627 262.167 732.823 213.358 732.823 153.587C732.823 93.8161 772.322 44.7463 844.143 44.7463ZM907.742 153.326C907.742 117.394 884.73 90.2489 844.143 90.2489C803.556 90.2489 780.283 117.394 780.283 153.326C780.283 189.258 803.295 216.403 844.143 216.403C884.991 216.403 907.742 188.997 907.742 153.326Z" fill="#252B37" style="fill:#252B37;fill:color(display-p3 0.1451 0.1686 0.2157);fill-opacity:1;"/>
<path d="M978.823 262.168V48.0532H1071.22C1117.55 48.0532 1143.35 79.5918 1143.35 117.96C1143.35 147.28 1127.99 176.078 1095.1 185.388L1157.35 262.168H1094.28L1037.81 188.433H1029.02V262.168H978.867H978.823ZM1029.02 144.801H1070.44C1087.45 144.801 1097.02 133.273 1097.02 117.917C1097.02 102.561 1087.14 91.5983 1070.44 91.5983H1029.02V144.801Z" fill="#252B37" style="fill:#252B37;fill:color(display-p3 0.1451 0.1686 0.2157);fill-opacity:1;"/>
<path d="M1505.54 262.166L1590.8 47.2249H1640.44L1725.44 262.166H1672.24L1654.14 214.749H1577.1L1558.74 262.166H1505.54ZM1594.11 171.117H1637.44L1615.51 114.652L1594.11 171.117Z" fill="#252B37" style="fill:#252B37;fill:color(display-p3 0.1451 0.1686 0.2157);fill-opacity:1;"/>
<path d="M1747.02 47.7489H1797.48V262.125H1747.02V47.7489Z" fill="#252B37" style="fill:#252B37;fill:color(display-p3 0.1451 0.1686 0.2157);fill-opacity:1;"/>
<path d="M1826.71 270.083V46.6595H1877.18V212.531C1883.48 211.704 1890.05 211.443 1896.62 211.443C1910.59 211.443 1924.29 213.618 1937.47 216.359C1945.17 218.273 1953.09 220.187 1960.79 221.84C1968.75 222.928 1976.14 224.32 1984.1 224.32C2000.29 224.32 2013.73 219.404 2027.13 210.617L2031.26 208.137L2055.66 245.679L2052.36 247.854C2031.78 260.731 2009.33 268.126 1984.1 268.126C1967.66 268.126 1952.3 264.82 1938.03 261.557C1930.64 259.904 1923.77 258.251 1916.37 257.163C1909.8 255.771 1902.67 254.988 1895.79 254.988C1884.57 254.988 1874.39 257.163 1864.26 260.209C1853.86 262.949 1843.68 266.516 1832.46 268.691L1826.71 270.04V270.083ZM1978.19 47.0946C2028.13 47.0946 2055.62 81.1998 2055.62 122.744C2055.62 164.288 2028.13 198.393 1978.19 198.393C1928.25 198.393 1900.75 164.027 1900.75 122.744C1900.75 81.4608 1928.55 47.0946 1978.19 47.0946ZM2010.46 122.744C2010.46 105.082 1999.42 90.1611 1979.67 90.1611C1959.92 90.1611 1950.35 105.996 1950.35 122.744C1950.35 139.492 1960.83 155.326 1979.67 155.326C1998.5 155.326 2010.46 140.362 2010.46 122.744Z" fill="#252B37" style="fill:#252B37;fill:color(display-p3 0.1451 0.1686 0.2157);fill-opacity:1;"/>
<path d="M2078.37 262.168V48.0532H2170.77C2217.1 48.0532 2242.89 79.5918 2242.89 117.96C2242.89 147.28 2227.54 176.078 2194.65 185.388L2256.9 262.168H2193.82L2137.36 188.433H2128.57V262.168H2078.41H2078.37ZM2128.53 144.801H2169.94C2186.95 144.801 2196.52 133.273 2196.52 117.917C2196.52 102.561 2186.65 91.5983 2169.94 91.5983H2128.53V144.801Z" fill="#252B37" style="fill:#252B37;fill:color(display-p3 0.1451 0.1686 0.2157);fill-opacity:1;"/>
<path d="M1556.83 56.1444C1556.18 49.4017 1553.79 41.5714 1550.61 35.3942C1538.91 11.2943 1516.59 1.20196 1489.01 3.85556C1452.51 7.42268 1420.84 27.6074 1405.36 61.1036C1403.97 63.4962 1403.23 65.8453 1402.14 67.8898C1401.14 67.6723 1400.14 67.1068 1400.14 67.1068C1376.08 59.1025 1356.11 53.2733 1330.19 55.7964C1313.22 57.4495 1286.42 65.3232 1265.07 93.1642C1251.28 109.738 1239.49 130.228 1239.49 130.228L1194.25 48.2706H1140.22L1214.52 179.428V262.081H1264.67V179.428C1264.67 179.428 1276.46 144.018 1290.64 127.443C1292.86 124.79 1295.3 122.267 1297.87 119.787C1307.39 111.13 1321.4 103.561 1334.97 102.256C1350.68 100.733 1373.52 106.258 1389.65 112.783C1377.39 212.924 1384.56 303.407 1384.56 303.407C1384.56 303.407 1430.37 302.494 1431.89 301.406C1430.63 264.995 1430.28 264.691 1431.5 167.595C1431.68 156.241 1431.85 144.627 1433.33 133.142C1433.33 132.838 1433.46 131.185 1433.94 129.227V128.574C1435.2 128.792 1436.55 129.271 1438.2 129.793C1441.86 130.75 1445.16 131.402 1445.77 131.315C1459.34 134.534 1472.74 136.144 1486.84 134.752C1530.08 130.532 1560.83 97.5144 1556.79 56.1879L1556.83 56.1444ZM1482.4 88.5966C1471.52 89.6406 1457.39 87.4655 1446.38 83.6809C1446.64 83.0284 1446.9 82.3323 1447.47 81.6363C1448.25 79.6352 1449.38 78.1997 1449.95 77.1992C1459.39 61.4081 1474.31 51.8813 1493.54 50.0107C1503.15 49.0972 1509.24 52.0553 1510.15 61.3211C1511.63 76.3726 1498.41 87.0305 1482.4 88.5966Z" fill="#252B37" style="fill:#252B37;fill:color(display-p3 0.1451 0.1686 0.2157);fill-opacity:1;"/>
<path d="M2280.43 97.2866V67.0207H2295.77C2297 67.0207 2298.34 67.3761 2299.79 68.0869C2301.24 68.7705 2302.47 69.8367 2303.48 71.2858C2304.52 72.7075 2305.04 74.512 2305.04 76.6992C2305.04 78.9138 2304.51 80.8003 2303.44 82.3587C2302.37 83.8898 2301.08 85.0517 2299.54 85.8446C2298.04 86.6375 2296.62 87.0339 2295.28 87.0339H2284.21V82.1126H2293.23C2294.13 82.1126 2295.1 81.6615 2296.14 80.7593C2297.21 79.857 2297.74 78.5037 2297.74 76.6992C2297.74 74.8401 2297.21 73.5824 2296.14 72.9262C2295.1 72.27 2294.19 71.942 2293.39 71.942H2287.08V97.2866H2280.43ZM2298.72 83.0149L2306.27 97.2866H2298.97L2291.59 83.0149H2298.72ZM2291.92 115.331C2287.38 115.331 2283.13 114.484 2279.16 112.789C2275.2 111.094 2271.71 108.742 2268.7 105.735C2265.7 102.727 2263.35 99.2415 2261.65 95.2771C2259.96 91.3127 2259.11 87.0613 2259.11 82.5227C2259.11 77.9842 2259.96 73.7328 2261.65 69.7684C2263.35 65.804 2265.7 62.3181 2268.7 59.3106C2271.71 56.3032 2275.2 53.9519 2279.16 52.2568C2283.13 50.5617 2287.38 49.7141 2291.92 49.7141C2296.46 49.7141 2300.71 50.5617 2304.67 52.2568C2308.64 53.9519 2312.12 56.3032 2315.13 59.3106C2318.14 62.3181 2320.49 65.804 2322.18 69.7684C2323.88 73.7328 2324.73 77.9842 2324.73 82.5227C2324.73 87.0613 2323.88 91.3127 2322.18 95.2771C2320.49 99.2415 2318.14 102.727 2315.13 105.735C2312.12 108.742 2308.64 111.094 2304.67 112.789C2300.71 114.484 2296.46 115.331 2291.92 115.331ZM2291.92 107.457C2296.51 107.457 2300.69 106.336 2304.47 104.094C2308.24 101.852 2311.25 98.845 2313.49 95.072C2315.73 91.299 2316.85 87.1159 2316.85 82.5227C2316.85 77.9295 2315.73 73.7464 2313.49 69.9734C2311.25 66.2004 2308.24 63.193 2304.47 60.9511C2300.69 58.7091 2296.51 57.5882 2291.92 57.5882C2287.32 57.5882 2283.14 58.7091 2279.37 60.9511C2275.59 63.193 2272.59 66.2004 2270.34 69.9734C2268.1 73.7464 2266.98 77.9295 2266.98 82.5227C2266.98 87.1159 2268.1 91.299 2270.34 95.072C2272.59 98.845 2275.59 101.852 2279.37 104.094C2283.14 106.336 2287.32 107.457 2291.92 107.457Z" fill="#252B37" style="fill:#252B37;fill:color(display-p3 0.1451 0.1686 0.2157);fill-opacity:1;"/>
</svg>
